<?xml version="1.0" encoding="utf-8"?>
<!-- Generator: Adobe Illustrator 19.0.0, SVG Export Plug-In . SVG Version: 6.00 Build 0)  -->
<svg version="1.1" xmlns="http://www.w3.org/2000/svg" xmlns:xlink="http://www.w3.org/1999/xlink" x="0px" y="0px"
	 viewBox="0 0 1400 980" style="enable-background:new 0 0 1400 980;" xml:space="preserve">
<style type="text/css">
	.st0{fill:#FAE682;}
	.st1{fill-rule:evenodd;clip-rule:evenodd;fill:#2E98CA;}
	.st2{fill:#5C3816;}
	.st3{fill:#ED793E;}
	.st4{fill:#ED8638;}
	.st5{fill:#EE3124;}
	.st6{fill:#E6EFEF;}
	.st7{fill:#A21F12;}
	.st8{fill:#C4CECE;}
	.st9{fill:#EBEBEC;}
	.st10{fill:#CE562C;}
	.st11{fill:#474340;}
	.st12{fill:#161514;}
	.st13{fill:#FFFFFF;}
	.st14{fill:#D2D3D4;}
	.st15{fill-rule:evenodd;clip-rule:evenodd;fill:#EDEDEE;}
	.st16{fill-rule:evenodd;clip-rule:evenodd;fill:#CCCCCC;}
	.st17{fill-rule:evenodd;clip-rule:evenodd;fill:#FFFFFF;}
	.st18{fill-rule:evenodd;clip-rule:evenodd;fill:#B3B3B3;}
	.st19{fill-rule:evenodd;clip-rule:evenodd;fill:#2680AB;}
	.st20{fill-rule:evenodd;clip-rule:evenodd;fill:#8CCA7F;}
	.st21{opacity:0.2;fill-rule:evenodd;clip-rule:evenodd;fill:#FFFFFF;}
	.st22{fill:#F2B083;}
	.st23{fill-rule:evenodd;clip-rule:evenodd;fill:#FFC15D;}
	.st24{fill:#0CAAEF;}
	.st25{fill:#282624;}
	.st26{fill:#C7C8CA;}
	.st27{fill:#EDB076;}
	.st28{fill-rule:evenodd;clip-rule:evenodd;fill:#E84625;}
	.st29{fill-rule:evenodd;clip-rule:evenodd;fill:#6952A2;}
	.st30{fill:#E84625;}
	.st31{fill-rule:evenodd;clip-rule:evenodd;fill:#E0E1E2;}
	.st32{fill-rule:evenodd;clip-rule:evenodd;fill:url(#SVGID_1_);}
	.st33{fill-rule:evenodd;clip-rule:evenodd;fill:#BCE6FB;}
	.st34{fill-rule:evenodd;clip-rule:evenodd;fill:#145776;}
	.st35{fill:#007DC2;}
	.st36{fill:#D1C8B4;}
	.st37{fill:#BECEC0;}
	.st38{fill:#D85339;}
	.st39{fill-rule:evenodd;clip-rule:evenodd;fill:#7F4534;}
	.st40{fill:#B0624D;}
	.st41{fill:#20364D;}
	.st42{fill:#E1EFFA;}
	.st43{fill:#CEE2F2;}
	.st44{fill:#2A445E;}
	.st45{fill:#4C8EB4;}
	.st46{fill:#013C5C;}
	.st47{fill:#FFD100;}
	.st48{fill:#41C5E7;}
	.st49{fill-rule:evenodd;clip-rule:evenodd;fill:#FFF8A7;}
	.st50{fill-rule:evenodd;clip-rule:evenodd;fill:#F9C875;}
</style>
<g id="Background">
	<rect class="st0" width="1400" height="980"/>
</g>
<g id="Objects">
	<g>
		<polygon class="st1" points="1171.3,764 932.1,835.2 867.4,617.1 1099.4,542.6 		"/>
		<path class="st2" d="M1207.6,774.9l-292.8,90.6c-8.7,2.7-17.9-2.2-20.6-10.8l0,0c-2.7-8.7,2.2-17.9,10.8-20.6l292.8-90.6
			c8.7-2.7,17.9,2.2,20.6,10.8l0,0C1221.1,763,1216.3,772.2,1207.6,774.9z"/>
		<g>
			<rect class="st3" width="1400" height="650"/>
		</g>
		<g>
			<path class="st4" d="M5.9,347.6c0,0,124.1,0,298.9,0c5.6,0,11.3,0,17.1,0c88.4,0,176.3,0,263,0c6.6,0,13.3,0,19.9,0
				c86.4,0,174.7,0,259.3,0c7,0,13.9,0,20.8,0c59.3,0,120.6,0,182.1,0c8.8,0,17.6,0,26.4,0c8.3,0,16.6,0,25.1,0c8.4,0,17.1,0,25.8,0
				c18.2,0,32.9,0,51,0c8.5,0,16.9,0,25.3,0c8.3,0,16.6,0,24.7,0c5.6,0,11.1,0,16.4,0c74.8,0,135.9,0,135.9,0v6.7
				c0,0-67.8,0-152.4,0c-5.6,0-11.4,0-17.2,0c-36.2,0-75.2,0-108.2,0c-8.8,0-17.6,0-26.4,0c-70.3,0-140.7,0-208.5,0
				c-6.8,0-13.8,0-20.8,0c-84.6,0-172.9,0-259.3,0c-6.7,0-13.3,0-19.9,0c-86.7,0-174.6,0-263,0c-5.7,0-11.4,0-17.1,0
				c-174.8,0-298.9,0-298.9,0V347.6z"/>
			<path class="st4" d="M5.9,330.2c0,0,130.9,0,316,0c5.8,0,11.6,0,17.5,0c76.5,0,150.4,1.7,227.6,0c6.7,0,13.4,0,20.1,0
				c46.7,0,94.1,0,141.3,0c7.9,0,15.7,0,23.6,0c28.3,0,62.8,0,93.5,0c7.7,0,15.4,0,23,0c7,0,14,0,21,0c54,0,110.1,0.8,165.7,0.8
				c8,0,15.9,0.4,23.8,0.4c50.7,0,95.1,0.2,146.1,0c7.5,0.1,15.4,0.2,23.4,0.2c8,0,16-0.8,24-0.8c6,0,11.9-0.7,17.6-0.7
				c62.9,0,107.4,0,107.4,0v3.3c0,0-40.7,0-97.9,0c-9.5,0-19.7,0-30.5,0c-7,0-14,0-21,0c-7.1,0-14.1,0-21.3,0
				c-42.9,0-82.3,0.8-127.2,0.9c-9,0-17.9-0.5-26.7-0.5c-62,0-123.7-0.4-183.5-0.4c-7,0-14,0-21,0c-17.1,0-34.3,0-51.6,0
				c-17.3,0-34.7,0-52.2,0c-17.5,0-35,0-52.5,0c-35.1,0-70.2,0-105.1,0c-6.7,0-13.4,0-20.1,0c-87.4,3.3-176,3.3-265.1,0
				c-5.8,0-11.5,0-17.2,0c-176.2,0-298.8,0-298.8,0V330.2z"/>
			<path class="st4" d="M5.9,311.7c0,0,79.8,0,205.6,0c6,0,12.7,0.9,19.4,0.9c22.7-0.1,52.2-0.5,77.8-0.6c6.2,0.1,13.1-0.3,20.1-0.3
				c7,0,14,0,21.2,0c6,0,12.1,0,18.3,0c62.6,0,131.5,0,194.7,0c6.8,0,13.5,0,20.3,0c25.5,0,51.1,0,76.8,0c8.6,0,17.2,0,25.8,0
				c69.9,3.3,133.9,1.7,203.8,0c6.9,0,13.9,0,20.8,0c43.3,0,87.1,0,131.1,0c8.8,0,18.1,1.1,27.6,1.5c65.7,6.1,124.8-6.2,190.9-1.6
				c7.5,0.3,15.2,0,23.1,0c7.9,0,15.8,0,23.7,0c10.6,0,20.3,0,29.1,0c35.1,0,61.8,0,61.8,0v6.7c0,0-37.9,0-90.8,0
				c-5.3,0-10.8,0-16.4-0.1c-7.2,0-14.4,0-21.7,0c-64.9-1.6-133.8,0.1-200.2,0.3c-9.4-0.2-18.2-0.3-27-0.3c-44,0-87.8,0-131.1,0
				c-6.9,0-13.8,0-20.8,0c-60,0-119.1,0-178,0c-8.7,0-17.3,0-25.8,0c-34.3,0-68.7,0-102.6,0c-6.8,0-13.6,0-20.3,0
				c-63.2,0-132.1,0-194.7,0c-6.1,0-12.2,0-18.2,0c-199.4,0-344,0-344,0V311.7z"/>
			<path class="st4" d="M5.9,293.1c0,0,58.9,0,157.3,0c5.8,0,11.7,0,17.7,0c52.8,0,111.9,0,164.9,0c7.6,0,15.2,0,23,0
				c7.7,0,15.5,0,23.4,0c6,0,12,0,18,0c40.2,0,74.7,0,111.8,0c6.4,0,12.8,0,19.2,0c34.8,0,70.1,0,105.6,0c8.9,0,17.8,0,26.6,0
				c77.3,3.3,156.1,0,237,0c6.9,0,13.8,0,20.6,0c23.6,0,47,0,70.3,0c11.6,0,23.2,0,34.8,0c6.6,0,13.6,1,20.7,1.3
				c73,6.2,151.8-7,225.3-0.2c8.4,0,16.8-0.6,25.2-0.6c10.5,0,20.2-0.6,28.9-0.6c34.8,0,61.4,0,61.4,0v3.3c0,0-26.7,0-61.8,0
				c-8.8,0-18.5,0-29.1,0c-7.8,0-15.6,0-23.4,0c-74.7-3.3-153.5,5.1-229.8,0.3c-7.1-0.2-13.9-0.3-20.7-0.3c-34.1,0-68.2,0-101.8,0
				c-6.8,0-13.7,0-20.6,0c-71,3.3-140,3.4-210,0.2c-9.1-0.1-18.1-0.2-27-0.2c-44.4,0-88.8,0-132.2,0c-6.4,0-12.8,0-19.2,0
				c-47,0-96.2,0-147.5,0c-5.9,0-11.7,0-17.5,0c-54.2,0-103.5,0-159.1,0c-5.9,0-11.7,0-17.4,0c-108.3,0-174.6,0-174.6,0V293.1z"/>
			<path class="st4" d="M5.9,273.5c0,0,47.5,0,130.1,0c9.2,0,18.7,0,29.8,0.7c68,6.1,141.9-4,210.7-0.7c6.7,0,13.3,0,20.1,0
				c74.2,0,154,0,235.1,0c7.2,0,14.4,0.8,21.6,0.8c82.8,3.4,171.4,4.7,257.2-0.4c6.9,0,13.8-0.4,20.6-0.4c30.6,0,61.1,0,91.4,0
				c6.1,0,12.1,0.8,18.2,1.1c79.4,6.5,158.2-6.6,237.7-0.3c7.9,0.4,15.7-0.3,23.6-0.3c7,0.1,13.6-0.5,19.9-0.5c43.7,0,75.7,0,75.7,0
				v3.3c0,0-35.8,0-85.4,0c-5.5,0-11.3,0.8-17.4,0.7c-81.3-4.9-169.9,4.9-254.2,0c-6.2-0.2-12.3-0.7-18.4-0.7c-30.5,0-61,0-91.2,0
				c-6.9,0-13.7,0.9-20.6,0.9c-80.9,3.4-154.7,4.6-235.4-0.3c-7.3-0.1-14.6-0.5-21.8-0.5c-89.9,0-178.9,0-260.8,0
				c-6.3,0-12.5,0-18.8,0c-75.9-5.1-154.6,3.3-227.3,0c-8.9,0-17.4,0-25.6,0c-73.5,0-114.9,0-114.9,0V273.5z"/>
			<path class="st4" d="M5.9,208.4c0,0,59.8-1.3,131.8,0c9.2,0.2,29.7,2.3,40.3,3c72.8,5.2,125.1-9.6,199.4-3.7
				c6.3,0.5,12.4,1,19.1,1c74.2,0,154,0,235.1,0c7.2,0,14.4-0.1,21.6-0.1c87.7,3.4,148.3,9.6,234.1,2.9c13.5-2.1,36.9-2.8,43.9-2.8
				c29.7,0,59.3,0.1,88.8,0.1c5.9,0,11.8,0,17.7,0c77.3,6.7,161-5.1,240.3-0.3c8.1,0.2,15.9,0.3,23.8,0.3c7,0,13.6,0,19.8,0
				c6.2,0,12.1,0,17.6,0c32.8,0,58.2,0,58.2,0v6.7c0,0-32,0-75.7,0c-6.2,0-12.9,0-19.8,0c-7.9,0-15.7-0.1-23.7-0.5
				c-79.5-6.4-158.3,7.2-237.7,0.6c-6-0.2-12-0.2-18.1-0.2c-30.3,0-60.8,0-91.4,0c-6.9,0-13.7-0.1-20.6-0.1
				c-90.7,5-169.5,3.4-257.2,0c-7.2,0-14.4,0-21.6,0c-81,0-160.9,0-235.1,0c-6.7,0-13.4-0.1-19.5-0.6c-69.4-4.6-143.2,5.5-211,1.4
				c-11-0.7-19.2-0.8-28.3-1c-79.4-2.5-131.8,0-131.8,0V208.4z"/>
			<path class="st4" d="M5.9,230.7c0,0,41.3,0,114.9,0c8.2,0,16.7,1.3,25.4,1.8c13.8,2.9,29.8,3,44.6,3c73.8,1.7,92.3-8.2,220.7-4.9
				c6.4,0,12.8,0,19.3,0c71,0,146.4,0,222.5,0c7.2,0,14.4,1.3,21.7,1.4c60.6,3.8,117.2,4.4,175.9,2.7c11.7-0.3,23.6-0.4,35.5-0.9
				c53.6-1.7,107.7-1.8,161.6-1.6c7.7,0,15.4,0.2,22.5,0.4c59.4,0.5,123.4,0.5,183.1,0.4c9.6,0.3,18.3,0.3,26.9,0.3
				c8.6-0.1,17.2-1.4,25.7-1.6c17.6,0.1,32.9-1.2,45.5-1.2c25.2,0,45.9,0,45.9,0v6.7c0,0-20.7,0-45.9,0c-12.6,0-28,0-45.8,0
				c-9.4,0-18.8,0-28.3,0c-73.9-6.7-152.7,3.1-226.3-0.3c-7.8,0-15.7-0.2-23.5-0.2c-39.2,0-78.2,0-117.1,0
				c-8.8,0.4-17.5,0.7-26.1,1.1c-77.6,3.1-156.9,0.5-231.3-1c-7.2,0-14.4,0.3-21.6,0.3c-81,0-160.9,0-235.1,0
				c-6.7,0-13.5-0.9-20.3-1.4c-48.9-4-98.1-0.7-147.4,4.3c-29.5,3.4-64-1.5-92.9-3.1c-9.2,0-18,0.2-26.3,0.2
				c-66.9,0-103.8,0-103.8,0V230.7z"/>
			<path class="st4" d="M1397.6,12.4c0,0-55.4,0-137.9,0c-9.2,0-18.7,0-29.8-0.8c-68-7-141.9,7.4-210.7,0.8c-6.6,0-13.3,0-20.1,0
				c-74.2,0-154,0-235.1,0c-7.2,0-14.4-1.8-21.6-1.8C659.7,6.7,571,5.7,485.2,11.5c-6.9,0-13.8,0.9-20.6,0.9c-30.6,0-61.1,0-91.4,0
				c-6.1,0-12.1-1.8-18.2-2.1c-79.4-7.5-158.2,7.1-237.7-0.1c-7.9-0.4-15.7,0.9-23.6,0.9c-7-0.1-13.6,1.2-19.9,1.2
				c-43.7,0-67.9,0-67.9,0V5.8c0,0,27.9,0,77.6,0c5.5,0,11.3-0.3,17.4-0.2c81.3,5.6,169.9-5.9,254.2-0.3c6.1,0.3,12.3,0.5,18.4,0.5
				c30.5,0,61,0,91.2,0c6.9,0,13.7-0.4,20.6-0.4C566.1,1.5,640-0.3,720.6,5.4c7.3,0.1,14.6,0.3,21.8,0.3c89.9,0,178.9,0,260.8,0
				c6.3,0,12.5,0,18.8,0c75.9,5.8,154.6-3.3,227.3,0c8.9,0,17.4,0,25.6,0c73.5,0,122.7,0,122.7,0V12.4z"/>
			<path class="st4" d="M1397.6,38.9c0,0-66.9,1.5-139,0c-9.2-0.2-30.1-2.6-40.7-3.4c-72.8-6-125.3,12.7-199.6,5.9
				c-6.3-0.6-12.5,0.5-19.3,0.5c-74.2,0-154,0-235.1,0c-7.2,0-14.4-1.5-21.6-1.5c-87.7-3.9-148.3-11.9-234.1-4.1
				c-13.5,2.4-36.9,4.5-43.9,4.4c-29.7,0-59.3,1.2-88.8,1.2c-5.9,0-11.8,0-17.7,0c-77.3-13.3-161,5.8-240.3,0.3
				c-8.1-0.3-15.9-0.3-23.8-0.3c-7,0-13.6,0-19.8,0c-6.2,0-12.1,0-17.6,0c-32.8,0-50.3,0-50.3,0V28.5c0,0,24.2,0,67.9,0
				c6.2,0,12.9,0,19.8,0c7.9,0,15.7,1.3,23.7,1.7c79.5,7.4,158.3-8.8,237.7-1.3c6,0.2,12.1-0.4,18.1-0.4c30.3,0,60.8,0,91.4,0
				c6.9,0,13.7,1.3,20.6,1.3c90.7-5.8,169.5-4.5,257.2-0.6c7.2,0,14.4-0.6,21.6-0.6c81,0,160.9,0,235.1,0c6.7,0,13.4,1.3,19.5,1.8
				c69.4,5.3,143.2-5.7,211-1c10.9,0.8,19.9,1.2,29,1.5c79.4,2.9,139,0.3,139,0.3V38.9z"/>
			<path class="st4" d="M1397.6,68.6c0,0-49.1,0-122.7,0c-8.2,0-16.7-2.1-25.4-2.7c-13.8-3.3-29.8-3.2-44.6-3.2
				c-73.8-1.9-92.3,9.2-220.7,5.9c-6.4,0-12.8,0-19.3,0c-71,0-146.4,0-222.5,0c-7.2,0-14.5-2.1-21.7-2.2
				c-60.6-4.3-117.2-5.4-175.9-3.5c-11.7,0.4-23.6,0.3-35.5,0.8c-53.6,1.9-107.7,2-161.6,1.8c-7.7,0-15.4-0.2-22.5-0.5
				c-59.4-0.5-123.4-0.6-183.1-0.5c-9.6-0.4-18.3-0.4-26.9-0.3c-8.6,0.1-17.2,2.3-25.7,2.4C72,66.6,56.6,68.6,44,68.6
				c-25.2,0-38.1,0-38.1,0v-10c0,0,12.9,0,38.1,0c12.6,0,28,0,45.8,0c9.4,0,18.8,0,28.3,0c73.9,10,152.7-3,226.3,0.9
				c7.8,0,15.7,0.5,23.5,0.5c39.2,0,78.2,0.2,117.1,0.1c8.8-0.5,17.5-0.8,26.1-1.2c77.6-3.6,156.9-1.2,231.3,0.6
				c7.2,0,14.4-0.9,21.6-0.9c81,0,160.9,0,235.1,0c6.7,0,13.5,1.6,20.3,2.2c48.9,4.6,98.1,1.1,147.4-4.7c29.5-3.9,64,1.2,92.9,3.2
				c9.2,0,17.9-0.7,26.3-0.7c66.9,0,111.6,0,111.6,0V68.6z"/>
			<path class="st4" d="M5.9,189.4c0,0,41.3,0,114.9,0c8.2,0,16.7,0,25.6,0c23.5,3.3,43.2,3,67.8,3c54.2-5.1,103.4-4.9,158.7-4
				c6.7,0.5,13.3,1.1,19.7,1.1c81.9,0,170.9,0,260.8,0c7.2,0,14.4-0.4,21.7-0.4c62.1,1.5,126.4,1.4,188.3,0.4
				c8.8-0.2,17.6-0.4,26.6-0.5c53.1-0.1,105.7-0.2,158.3-0.2c8.8,0,17.5,0,26.3,0c55.5,0,104.7,0,157.9-0.4
				c9.8,0.2,18.9,0.2,27.8,0.2c17.9,0,35.9,0.4,54,0.4c16,0.1,29.9,0.6,41.3,0.6c22.8,0,42.2,0,42.2,0v3.3c0,0-18.6,0-40.1,0
				c-10.7,0-23.9,0-39.2,0c-9,0-18,0-27,0c-9,0-18,0-27,0c-65.5,0-124.6-0.4-189.1-0.1c-7.3-0.2-15.2-0.4-23-0.4
				c-55.1,0.1-110.3,0.1-165.8,0.3c-11.9,0.2-23.8,0.3-35.5,0.4c-58.7,0.6-115.4,0.7-175.9-0.6c-7.2,0-14.5,0.3-21.7,0.3
				c-76.1,0-151.5,0-222.5,0c-6.5,0-12.9,0-19.3,0c-79.2-6.7-148.1,3-226.9,1.3c-9.9,0-29.5,1.9-38.5-1c-8.6-0.5-17.1-0.3-25.3-0.3
				c-73.5,0-114.9,0-114.9,0V189.4z"/>
			<path class="st4" d="M5.9,171c0,0,43.3,0,119.7,0c8.5,0,17.3,0,26.5,0c76.7,3.3,155.5-5.1,235.3,0c6.4,0,12.9,0,19.4,0
				c8.4,0,17,0,25.6,0c8.6,0,17.2,0,25.9,0c26.5,0,56,0,79.7,0c9,0,18,0,27.1,0c36.2,0,72.9,0,109.8,0c7.2,0,14.5-0.4,21.7-0.4
				c51.7,0,99.6-0.3,150.1-0.2c7.2,0,14.5-0.1,21.8-0.1c64.8,0,130.4-0.1,196.1-0.1c9.4,0,18.8,0,28.1,0c37.1,0,71.6,0,111.7-0.1
				c9.8,0,19.2,0,28.5,0c27.9,0,55.6,0.4,83.1,0.4c15.5,0.2,29.1,0.7,40.3,0.7c22.3,0,41.3,0,41.3,0v3.3c0,0-19.4,0-42.2,0
				c-11.4,0-25.3-0.5-41.3-0.6c-20.4,0.3-40.6,0.2-60.7,0.2c-6.7,0-13.4-0.1-20.1-0.1c-49.3-0.2-103.4-0.3-153.6-1.1
				c-7.9-0.1-15.8-0.1-23.7-0.2c-55.2-0.3-110.4-0.3-166.2,1.1c-8.3,0.1-16.5,0.2-24.6,0.4c-56.6,1.1-112.6,1.4-168.6-0.1
				c-7.3,0-14.5,0.4-21.7,0.4c-92,0-183.5,0-268,0c-6.5,0-13-0.4-19.4-0.5c-79.8-6.8-158.6,7-235.9,0.7c-8.7-0.4-17.5-0.2-26-0.2
				c-76.4,0-119.7,0-119.7,0V171z"/>
			<path class="st4" d="M1397.6,139.2c-18.8,0-69.1,0.7-88,0.7c-83.7-0.8-168.4,0.1-253.9,0.6c-9.5,0.1-19.3,0.3-28.8,0.4
				c-48.8,0.4-93,0.5-142.1,0.2c-9.6-0.1-19.1,0-28.5,0c-17,0-34.1,0-51.1,0c-8.5,0-17,0-25.6,0c-24.4,0.1-49,0.2-73.7,0.2
				c-8.3,0-16.7,0-24.9,0c-144.8-1-292.1-1-436.2-0.5c-8.8,0-18,0-26.9,0c-70.8-0.1-141.5-0.3-212.1-0.4l0.1-2.2
				c70.6,0.2,141.3,0.3,212.1,0.4c8.8,0,17.7,0,26.7,0c154-1.5,301.3,1.7,455.4,1.1c8.5-0.1,17-0.2,25.5-0.3
				c8.5-0.1,16.9-0.3,25.3-0.4c9.3-0.1,18.1-0.1,26.9-0.1c26,0,51.9,0,77.9,0c9.4,0,19,0,28.3,0c49.7,0.3,93.9,0.3,142-0.2
				c9.4,0,18.8-0.1,28.2-0.1c84.4-0.5,167.8-1.2,253.6-0.5c18.8,0,70.9-0.3,89.7-0.3l0,0c-4.4,0,0,0,0,0l0,0l0,0"/>
			<path class="st4" d="M5.9,644.6c0,0,79.8,0,205.6,0c6,0,12.7,1.2,19.4,1.2c22.7-0.1,52.2-0.7,77.8-0.7c6.2,0.1,13.1-0.5,20.1-0.5
				c7,0,14,0,21.2,0c6,0,12.1,0,18.3,0c62.6,0,131.5,0,194.7,0c6.8,0,13.5,0,20.3,0c25.5,0,51.1,0,76.8,0c8.6,0,17.2,0,25.8,0
				c69.9,3.3,133.9,1.7,203.8,0c6.9,0,13.9,0,20.8,0c43.3,0,87.1,0,131.1,0c8.8,0,18.1,1.4,27.6,1.8c65.7,6.1,124.8-6.3,190.9-1.7
				c7.5,0.3,15.2-0.1,23.1-0.1c7.9,0,15.8,0,23.7,0c10.6,0,20.3,0,29.1,0c35.1,0,61.8,0,61.8,0v6.7c0,0-37.9,0-90.8,0
				c-5.3,0-10.8,0.3-16.4,0.2c-7.2,0-14.4,0.2-21.7,0.2c-64.9-1.6-133.8,0.1-200.2,0.4c-9.4-0.2-18.2-0.2-27-0.2
				c-44,0-87.8,0-131.1,0c-6.9,0-13.8,0-20.8,0c-60,0-119.1-0.3-178-0.3c-8.7,0-17.3-0.4-25.8-0.4c-34.3,0-68.7,0-102.6,0
				c-6.8,0-13.6,0-20.3,0c-63.2,0-132.1,0-194.7,0c-6.1,0-12.2,0-18.2,0c-199.4,0-344,0-344,0V644.6z"/>
			<path class="st4" d="M5.9,622.1c0,0,58.9,0,157.3,0c5.8,0,11.7,0,17.7,0c52.8,0,111.9,0,164.9,0c7.6,0,15.2,0,23,0
				c7.7,0,15.5,0,23.4,0c6,0,12,0,18,0c40.2,0,74.7,0,111.8,0c6.4,0,12.8,0,19.2,0c34.8,0,70.1,0,105.6,0c8.9,0,17.8,0,26.6,0
				c77.3,3.3,156.1,0,237,0c6.9,0,13.8,0,20.6,0c23.6,0,47,0,70.3,0c11.6,0,23.2,0,34.8,0c6.6,0,13.6,1.3,20.7,1.6
				c73,6.2,151.8-6.8,225.3,0c8.4,0,16.8-0.8,25.2-0.8c10.5,0,20.2-0.8,28.9-0.8c34.8,0,61.4,0,61.4,0v3.3c0,0-26.7,0-61.8,0
				c-8.8,0-18.5,0-29.1,0c-7.8,0-15.6,0-23.4,0c-74.7-3.3-153.5,5.1-229.8,0.3c-7.1-0.2-13.9-0.3-20.7-0.3c-34.1,0-68.2,0-101.8,0
				c-6.8,0-13.7,0-20.6,0c-71,3.3-140,3.4-210,0.2c-9.1-0.1-18.1-0.2-27-0.2c-44.4,0-88.8,0-132.2,0c-6.4,0-12.8,0-19.2,0
				c-47,0-96.2,0-147.5,0c-5.9,0-11.7,0-17.5,0c-54.2,0-103.5,0-159.1,0c-5.9,0-11.7,0-17.4,0c-108.3,0-174.6,0-174.6,0V622.1z"/>
			<path class="st4" d="M5.9,534.1c0,0,59.8-1.3,131.8,0c9.2,0.2,29.7,2.3,40.3,3c72.8,5.2,125.1-9.6,199.4-3.7
				c6.3,0.5,12.4,1,19.1,1c74.2,0,154,0,235.1,0c7.2,0,14.4-0.1,21.6-0.1c87.7,3.4,148.3,9.6,234.1,2.9c13.5-2.1,36.9-2.9,43.9-2.8
				c29.7,0,59.3,0,88.8,0c5.9,0,11.8,0,17.7,0c77.3,6.7,161-5.1,240.3-0.3c8.1,0.2,15.9,0.3,23.8,0.3c7,0,13.6,0,19.8,0
				c6.2,0,12.1,0,17.6,0c32.8,0,58.2,0,58.2,0v6.7c0,0-32,0-75.7,0c-6.2,0-12.9,0-19.8,0c-7.9,0-15.7-0.1-23.7-0.4
				c-79.5-6.4-158.3,7.2-237.7,0.6c-6-0.2-12-0.2-18.1-0.2c-30.3,0-60.8,0-91.4,0c-6.9,0-13.7-0.1-20.6,0c-90.7,5-169.5,3.4-257.2,0
				c-7.2,0-14.4,0-21.6,0c-81,0-160.9,0-235.1,0c-6.7,0-13.4-0.1-19.5-0.5c-69.4-4.6-143.2,5.5-211,1.4c-11-0.7-19.2-0.7-28.3-1
				c-79.4-2.5-131.8,0-131.8,0V534.1z"/>
			<path class="st4" d="M5.9,509.2c0,0,41.3,0,114.9,0c8.2,0,16.7-0.6,25.4-0.1c13.8,2.8,29.8,4,44.6,4
				c73.8,1.7,92.3-10.6,220.7-3.9c6.4,0,12.8,0,19.3,0c71,0,146.4,0,222.5,0c7.2,0,14.4-0.6,21.7-0.5c60.6,3.8,117.2,3.4,175.9,1.8
				c11.7-0.3,23.6-0.9,35.5-1.3c53.6-1.7,107.7-2,161.6-1.9c7.7,0,15.4,0,22.5,0.3c59.4,0.5,123.4,0.4,183.1,0.3
				c9.6,0.3,18.3,0.3,26.9,0.2c8.6-0.1,17.2,0.5,25.7,0.3c17.6,0.1,32.9,0.7,45.5,0.7c25.2,0,45.9,0,45.9,0v3.3c0,0-20.7,0-45.9,0
				c-12.6,0-28,0-45.8,0c-9.4,0-18.8,0-28.3,0c-73.9-3.3-152.7,2.8-226.3-0.5c-7.8,0-15.7-0.3-23.5-0.3c-39.2,0-78.2-0.1-117.1,0
				c-8.8,0.4-17.5,0.7-26.1,1.1c-77.6,3.1-156.9,0.8-231.3-0.7c-7.2,0-14.4,0.5-21.6,0.5c-81,0-160.9,0-235.1,0
				c-6.7,0-13.5-1.1-20.3-1.7c-48.9-4-98.1-0.9-147.4,4.2c-29.5,3.4-64-1.3-92.9-3c-9.2,0-18,0.4-26.3,0.4c-66.9,0-103.8,0-103.8,0
				V509.2z"/>
			<path class="st4" d="M5.9,483.1c0,0,41.3,0,114.9,0c8.2,0,16.7,0,25.6,0c23.5,6.7,43.2,4.3,67.8,4.3
				c54.2-5.1,103.4-5.5,158.7-4.7c6.7,0.5,13.3,0.4,19.7,0.4c81.9,0,170.9,0,260.8,0c7.2,0,14.4,0.9,21.7,0.9
				c62.1,1.5,126.4,2.1,188.3,1c8.8-0.2,17.6-0.1,26.6-0.2c53.1-0.1,105.7,0,158.3,0c8.8,0,17.5,0.1,26.3,0
				c55.5,0,104.7,0,157.9-0.3c9.8,0.2,18.9,0.3,27.8,0.2c17.9,0,35.9-0.9,54-1c16,0.1,29.9-0.8,41.3-0.8c22.8,0,42.2,0,42.2,0v6.7
				c0,0-18.6,0-40.1,0c-10.7,0-23.9,0-39.2,0c-9,0-18,0-27,0c-9,0-18,0-27,0c-65.5,0-124.6-0.7-189.1-0.5c-7.3-0.2-15.2-0.5-23-0.5
				c-55.1,0.1-110.3,0-165.8,0.2c-11.9,0.2-23.8,0.3-35.5,0.4c-58.7,0.6-115.4,1-175.9-0.2c-7.2,0-14.5,0.6-21.7,0.6
				c-76.1,0-151.5,0-222.5,0c-6.5,0-12.9,0-19.3,0c-79.2-6.7-148.1,2.7-226.9,1c-9.9,0-29.5,2.1-38.5-0.9
				c-8.6-0.4-17.1-0.1-25.3-0.1c-73.5,0-114.9,0-114.9,0V483.1z"/>
			<path class="st4" d="M5.9,461.8c0,0,51.4,0,139.4,0c9.8,0,19.9,0.2,29.2,0.7c59.2,6.3,123.2-7.4,183.5-1
				c7.6,0.3,14.5,0.3,21.5,0.3c11.5,0,23.2,0,35,0c5.9,0,11.9,0.2,17.9,0.2c47.6,0,91.9-0.1,138.9-0.1c7.1,0,14.3-0.1,21.4-0.1
				c28.3,0,56.2,0,82.2,0c7.2,0,14.5,0,21.7,0c51.7,0,99.6,0,150.1,0c7.2,0,14.5,0.2,21.9,0.3c9-0.2,18.1-0.3,27.1-0.4
				c9-0.2,18.1-0.2,27.1-0.4c24.8-0.8,54.4-0.8,81.3-0.6c9,0,18.1-0.2,27.1-0.2c108.4,0,216.7,1.3,325,1.3c22.3,0,41.3,0,41.3,0v3.3
				c0,0-19,0-41.3,0c-11.1,0-24.7,0.2-40.3,0c-146.8-1.4-299.4-1.3-447.5,0.4c-7.3,0-14.6-0.2-21.8-0.2c-50.5,0-98.4-0.2-150.1-0.2
				c-7.2,0-14.5,0-21.7,0c-7.1,0-14.2,0-21.2,0c-7.1,0-14.2,0-21.2,0c-17.2,0-34.4,0-51.8,0c-5.8,0-11.6,0-17.5,0
				c-43.9,0-88.2,0-130.9,0c-6.1,0-12.2,0-18.2,0c-6,0-12.1,0-18,0c-7.2,0-14.3,0.2-21.4,0.2c-72-6.8-150.8,5-222.6-0.1
				c-10.2,0-20-0.1-29.4-0.1c-74.7,0-116.9,0-116.9,0V461.8z"/>
			<path class="st4" d="M5.9,437.4c0,0,48.8,0,133.1,0c9.4,0,19.1,0,29.3,0c60.6,0,114.7,0,175.4-0.2c7.1,0.1,13.8,0.2,20.4,0.2
				c5.6,0,11.1,0,16.8,0c5.6,0,11.3,0,17,0c62.4,0,121.5-3.4,184.8-0.1c7.9,0.1,15.7,0.1,23.5,0.1c23.2,0,46.3,0,70.1,0
				c7.2,0,14.3,0,21.5,0c21.3,0,42.6,0,63.7,0c7.2,0,14.4,0,21.6,0c7.2,0,14.4,0,21.5,0c14,0,27.9,0,41.7,0c6.9,0,13.8,0.8,20.7,0.9
				c55.9-0.1,110.1-3.1,163.8-0.4c9.1,0,18.2-0.6,27.2-0.6c99.8,0.1,199.5,0.1,299.8,0.1c21.2,0,39.6,0,39.6,0v6.7c0,0-19,0-41.3,0
				c-99.3,0-198.5-2.1-297.9-2.3c-9,0-18.1-0.4-27.1-0.4c-44.2-0.2-93.4-0.4-135.5,0.8c-9,0.2-18.1,0.3-27.2,0.5
				c-7.4-0.1-14.6-0.2-21.7-0.2c-35.6,0-69.2,0.8-106.9,0.8c-7.2,0-14.4,0.8-21.7,0.8c-6.8,0-13.6,0-20.4,0c-6.8,0-13.7,0-20.5,0
				c-22.3,0-45.3,0-68.3,0c-7.7,0-15.5,0-23.1,0c-56.7,0-120.7,0-180.4,0c-5.8,0-11.5,0-17.3,0c-5.7,0-11.4,0-17.1,0
				c-6.8,0-13.5,0-21-0.3c-57.3-4.8-121.3,0.3-178.4,0.3c-10.3,0-20.3,0-29.8,0c-86,0-136,0-136,0V437.4z"/>
			<path class="st4" d="M5.9,395.1c0,0,9.1,0,32,0c5.7,0,12.1,0,19,0c104,0,207.2,0,310.3,0c9.5,0,18.9,0,28.7-0.1
				c74.2-3.3,152.9,0.1,225.1,0.1c9.4,0,18.9,0,28.3,0c47.2,0,94.6,0,142.2,0c5.8,0,11.5,0,17.3,0c5.7,0,11.5,0,17.2,0
				c7.1,0,14.6,0.6,21.3,0.7c75.7-3.4,154.5-3,226.8-1.6c9.5,0,18.9-0.5,28.4-0.5c85.2,0.2,170.1,1.4,253.9,1.4
				c22.1,0,41.1,0,41.1,0v3.3c0,0-19,0-41.1,0c-83.8,0-168.7-0.1-253.9-0.5c-9.5-0.1-18.9-0.5-28.4-0.5c-72.3-2-151.1-2.3-226.8,1
				c-7.1,0-14.2,0-21.3,0c-34.3,0-69.1,0-103.9,0c-7.1,0-14.1,0-21.2,0c-7.3,0-14.7,0-22.2,0c-7.4,0-14.9,0-22.4,0
				c-9.4,0-18.7,0-28,0c-9.4,0-18.8,0-28.5-0.1c-75.5-3.3-149.4,0.1-222.5,0.1c-9.4,0-18.9,0-28.5,0c-9.5,0-19.1,0-28.7,0
				c-7.1,0-14.1,0-21,0c-6.9,0-13.8,0-20.6,0c-64.5,0-133.4,0-199,0c-8.1,0-15.7,0-22.6,0c-34.8,0-51,0-51,0V395.1z"/>
			<path class="st4" d="M5.9,372c113.9-0.5,240.6-0.8,361.4-1c9.5,0,18,0,27.9,0c45.5-0.4,89.8-0.5,133.8-0.5c7.3,0,14.4,0,21.7,0
				c62.4-0.2,121.3-0.2,186.1,0.2c7.7,0,15.6,0.1,23.4,0.1c7.7,0,15.4,0,23.2,0c9.3,0,18.6,0,27.8,0c9.3,0,19.3,0,28.1,0
				c73.8,2.9,147.6-0.5,222.4,1.4c9.8-0.1,19.2-0.2,28.6-0.3c83.8-1.1,167.6-3,251.5-0.5c7.8,0.1,61.6-0.5,55.5-0.5c-8.9,0,0,0,0,0
				v6.3c0,0-24.2,0-55.4-0.2c-86.1-1.8-172.1-1-258.3-0.3c-9.7,0.1-19.5,0.1-29.7,0.1c-71.9-1.3-150.7-3-226.4-0.4
				c-9.7,0-19.5,0-29.2,0c-15.6,0-31.2,0-46.9,0c-7.8,0-15.6,0-23.5,0c-51.3-1-100.6-1-149.6-0.5c-8.6,0-17.1-0.1-25.6-0.1
				c-59.3-0.3-117.9,0-176.6,1c-9.4,0-18.8,0.2-28.2,0.2c-112.5,0.1-225,0.4-337.2,0.4c-5.7,0-5.2,0-5.2,0V372z"/>
			<path class="st4" d="M5.9,121.5c0,0,81.4,0,211.2,0c7.2,0,14.6,0.3,22.1,0.3c31.6,0,66,0.2,95.7,0.2c8.6,0,17.3,0.1,25.9,0.1
				c86.4,0,173.6,0,259.7,0c8.6,0,17.3,0,25.9,0c51.5,0,105.5,0,155.6,0c9.3,0,18.6,0,27.9-0.1c102-0.5,201.3-3.4,303.6-0.3
				c5.4,0,10.8-0.3,16.2-0.3c16.2,0,32.6,0,50.6,0c10.2,0,20.1,0,29.6,0c95.1,0,167.5,0,167.5,0v3.3c0,0-61,0-140.1,0
				c-8.8,0-18,0-27.5,0c-26.5,0-52,0-77.2,0c-8.4,0-16.9,0.3-25.2,0.3c-100.7,0-203.8,0.2-305.4,0.2c-6.5,0-13.1,0.1-19.6,0.1
				c-7.6,0-15.3,0-23,0c-37.4,0-76.7,0-115.7,0c-7.5,0-15.4,0.1-22.9,0.1c-97.9,1.3-194.7,0.5-292.1,0.1c-8.9,0-17.7-0.4-26.6-0.5
				c-26.9-0.1-51.5-0.5-74.6-0.5c-7.3,0-14.6,0-21.6,0c-134.7,0-220.2,0-220.2,0V121.5z"/>
			<path class="st4" d="M5.9,415.1c0,0,84.3,0,214.4,0c7.2,0,14.6,0.4,22.1,0.4c31.7,0,66.2,0.3,96,0.3c8.7,0,17.3,0.1,26,0.1
				c86.7,0,174.1,0,260.5,0c8.6,0,17.3,0,25.9,0c51.7,0,105.8,0,156.1,0c9.4,0,18.7,0,28-0.1c102.3-0.4,201.9-3.5,304.5-0.4
				c5.4,0,10.9-0.4,16.3-0.4c16.2,0,32.6,0,50.8,0c10.2,0,20.1,0,29.7,0c95.4,0,161.5,0,161.5,0l0,0c0,0-54.6,0-133.9,0
				c-8.8,0-18,0-27.5,0c-26.6,0-52.1,0-77.4,0c-8.4,0-16.9,2.1-25.3,2.1c-101,0-204.4,1.1-306.3,1.1c-6.5,0-13.1,0.5-19.7,0.5
				c-7.7,0-15.4,0.3-23.1,0.3c-37.5,0-76.9,0.1-116,0.1c-7.6,0-15.4,0.1-23,0.1c-98.2,1.3-195.3,0.5-292.9,0.2
				c-8.9,0-17.8-2.2-26.6-2.2c-27-0.1-51.6-2.2-74.8-2.2c-7.4,0-14.6,0-21.7,0C94.2,415.1,5.9,415.1,5.9,415.1L5.9,415.1z"/>
			<path class="st4" d="M5.9,102.1c0,0,47.1,0,131.3,0c5.3,0,10.6,0,16.1,0c230.4-3.3,466.1-3.3,696.9,0c8.5,0,17,0,25.5,0
				c102.2,0,205.6,0,310.1,0c9.5,0,19,0,28.5,0c47.5,0,95.3,0,143.7,0c8.8,0,25.7,0,30.3,0c3.6,0,9.2,0,9.2,0v6.7c0,0-21.9,0-39.5,0
				c-4.4,0-9.3,0-14.7,0c-47,0-93.4,0-139.6,0c-9.2,0-18.5,0-27.7,0c-100.8-3.3-203.3-0.5-303.2-0.1c-8.3,0-16.6,0.1-24.9,0.2
				c-223.6-3.2-449.4,0-677.5,0c-5.9,0-11.5-0.1-17-0.1c-93.6,0-147.4,0-147.4,0V102.1z"/>
			<path class="st4" d="M5.9,81.2c0,0,48.7,0,135.1,0c5.4,0,11.1,0,16.7,0c226,0,451.8-1.7,675.4,2c8.9,0.1,18.3,1,27.3,1.1
				c98.2,1.2,197.7,4,294.7,0.7c9.8,0,19.3-1.5,28.8-1.5c64.9,0,149.1-2.2,213.6-2.2l0,0v6.7c0,0-5.1,0,0,0c4.6,0-30.7,0.1-39.6,0.1
				c-53.7,0-107.6,0-161.5,0c-9,0-18.4,0-27.4,0c-100.2,0-203.4-0.1-305.4-0.1c-9.4,0-19.1,0-28.3,0c-225.7-6.7-446.7,0-670.6,0
				c-6.9,0-13.4,0-19.8,0c-88.7,0-139.1,0-139.1,0V81.2z"/>
			<path class="st4" d="M1397.6,572.8c0,0-66.9,1.5-139,0c-9.2-0.2-30.1-2.6-40.7-3.4c-72.8-6-125.3,12.9-199.6,6.1
				c-6.3-0.6-12.5,0.7-19.3,0.7c-74.2,0-154,0-235.1,0c-7.2,0-14.4-1.7-21.6-1.7c-87.7-3.9-148.3-12-234.1-4.2
				c-13.5,2.4-36.9,4.6-43.9,4.6c-29.7,0-59.3,1.3-88.8,1.3c-5.9,0-11.8,0-17.7,0c-77.3-13.3-161,5.9-240.3,0.3
				c-8.1-0.3-15.9-0.3-23.8-0.3c-7,0-13.6,0-19.8,0c-6.2,0-12.1,0-17.6,0c-32.8,0-50.3,0-50.3,0v-13.3c0,0,24.2,0,67.9,0
				c6.2,0,12.9,0,19.8,0c7.9,0,15.7,1.1,23.7,1.5c79.5,7.4,158.3-8.7,237.7-1.2c6,0.2,12.1-0.3,18.1-0.3c30.3,0,60.8,0,91.4,0
				c6.9,0,13.7,1.1,20.6,1.1c90.7-5.8,169.5-4.4,257.2-0.5c7.2,0,14.4-0.5,21.6-0.5c81,0,160.9,0,235.1,0c6.7,0,13.4,1.1,19.5,1.6
				c69.4,5.3,143.2-5.8,211-1.1c10.9,0.8,19.9,1.1,29,1.5c79.4,2.9,139,0.3,139,0.3V572.8z"/>
			<path class="st4" d="M1397.6,604c0,0-49.1,0-122.7,0c-8.2,0-16.7-0.6-25.4-1.3c-13.8-3.3-29.8-3.9-44.6-3.9
				c-73.8-1.9-92.3,11.8-220.7,5.2c-6.4,0-12.8,0-19.3,0c-71,0-146.4,0-222.5,0c-7.2,0-14.5-0.7-21.7-0.7
				c-60.6-4.3-117.2-4.6-175.9-2.7c-11.7,0.4-23.6,0.7-35.5,1.2c-53.6,1.9-107.7,2.2-161.6,2c-7.7,0-15.4-0.1-22.5-0.4
				c-59.4-0.5-123.4-0.5-183.1-0.4c-9.6-0.4-18.3-0.4-26.9-0.3c-8.6,0.1-17.2,0.8-25.7,0.9C72,603.4,56.6,604,44,604
				c-25.2,0-38.1,0-38.1,0v-6.7c0,0,12.9,0,38.1,0c12.6,0,28,0,45.8,0c9.4,0,18.8,0,28.3,0c73.9,6.7,152.7-3.1,226.3,0.7
				c7.8,0,15.7,0.4,23.5,0.4c39.2,0,78.2,0.1,117.1,0.1c8.8-0.4,17.5-0.8,26.1-1.2c77.6-3.6,156.9-1,231.3,0.8
				c7.2,0,14.4-0.7,21.6-0.7c81,0,160.9,0,235.1,0c6.7,0,13.5,1.4,20.3,2c48.9,4.6,98.1,1,147.4-4.8c29.5-3.9,64,1.4,92.9,3.3
				c9.2,0,17.9-0.6,26.3-0.6c66.9,0,111.6,0,111.6,0V604z"/>
		</g>
		<g>
			<g>
				<g>
					<g>
						<path class="st5" d="M134.6,370.1c-2.9,4.7-9.1,6.1-13.7,3.2l-97.6-60.4c-4.7-2.9-6.1-9.1-3.2-13.7l81.7-132
							c2.9-4.7,9.1-6.1,13.7-3.2l97.6,60.4c4.7,2.9,6.1,9.1,3.2,13.7L134.6,370.1z"/>
						
							<rect x="64.2" y="197.3" transform="matrix(0.8502 0.5264 -0.5264 0.8502 159.0304 -22.0744)" class="st6" width="108.2" height="142.4"/>
					</g>
					<g>
						<g>
							<path class="st7" d="M80.7,336.9c-1.2,1.9-3.7,2.5-5.6,1.3c-1.9-1.2-2.5-3.7-1.3-5.6c1.2-1.9,3.7-2.5,5.6-1.3
								C81.3,332.5,81.9,335,80.7,336.9z"/>
						</g>
						<g>
							<path class="st7" d="M159.3,202.2c-1-0.6-1.3-2-0.7-3c0.6-1,1.9-1.3,3-0.7c1,0.6,1.3,2,0.7,3
								C161.7,202.5,160.3,202.8,159.3,202.2z"/>
						</g>
					</g>
				</g>
			</g>
			<g>
				<g>
					
						<rect x="82.2" y="254" transform="matrix(0.8514 0.5246 -0.5246 0.8514 153.1016 -28.0078)" class="st8" width="87.5" height="4.3"/>
					<polygon class="st8" points="156.9,289.4 82.4,243.4 84.7,239.8 159.2,285.7 					"/>
					
						<rect x="71.9" y="270.8" transform="matrix(0.8514 0.5245 -0.5245 0.8514 160.3723 -20.0799)" class="st8" width="87.5" height="4.3"/>
					
						<rect x="68.5" y="272.9" transform="matrix(0.8514 0.5245 -0.5245 0.8514 159.1211 -11.6289)" class="st8" width="63.2" height="4.3"/>
				</g>
				
					<rect x="99.7" y="202.3" transform="matrix(0.8514 0.5245 -0.5245 0.8514 132.2366 -28.7253)" class="st8" width="34.3" height="33.4"/>
			</g>
		</g>
		<path class="st9" d="M1280,0C906.9,442.1,178.2,588.1,0,617.9v32h1400V0H1280z"/>
		<g>
			<g>
				<path class="st10" d="M654.8,562.2c-0.9,8.2-6.4,14.4-15.4,13.5l-111.1-11.9c-9-1-21.3-12.8-20.4-21L525,438.9
					c0.9-8.2,9-14.2,18-13.2l108.3,6.2c9,1,15.9,13.9,15,22.2L654.8,562.2z"/>
				<path class="st11" d="M651.8,556.2c-0.9,8.2-9,14.2-18,13.2l-111.1-11.9c-9-1-15.7-8.5-14.8-16.7l11.6-108.2
					c0.9-8.2,9-14.2,18-13.2l111.1,11.9c9,1,15.7,8.5,14.8,16.7L651.8,556.2z"/>
			</g>
			<g>
				<path class="st12" d="M581.2,501.3c-0.6,13.1-11.7,23.2-24.8,22.6l0,0c-13.1-0.6-23.2-11.7-22.6-24.8l2-43.1
					c0.6-13.1,11.7-23.2,24.8-22.6l0,0c13.1,0.6,23.2,11.7,22.6,24.8L581.2,501.3z"/>
				<g>
					<path class="st13" d="M575.5,495.1c-0.6,13.1-11.7,23.2-24.8,22.6l0,0c-13.1-0.6-23.2-11.7-22.6-24.8l2-43.1
						c0.6-13.1,11.7-23.2,24.8-22.6l0,0c13.1,0.6,23.2,11.7,22.6,24.8L575.5,495.1z"/>
					<path class="st13" d="M559.2,422.5h-4v-27.1c0-9.3,7.6-16.9,16.9-16.9h24.6c9.3,0,16.9,7.6,16.9,16.9c0,7.1,5.8,12.9,12.9,12.9
						h2.1c7.1,0,12.9-5.8,12.9-12.9v-70.8c0-7.1-5.8-12.9-12.9-12.9h-6.2c-9.3,0-16.9-7.6-16.9-16.9v-7.1h4v7.1
						c0,7.1,5.8,12.9,12.9,12.9h6.2c9.3,0,16.9,7.6,16.9,16.9v70.8c0,9.3-7.6,16.9-16.9,16.9h-2.1c-9.3,0-16.9-7.6-16.9-16.9
						c0-7.1-5.8-12.9-12.9-12.9h-24.6c-7.1,0-12.9,5.8-12.9,12.9V422.5z"/>
					<path class="st14" d="M556.6,454.2c-0.1,1.7-1.6,3.1-3.3,3l0,0c-1.7-0.1-3.1-1.6-3-3.3l0.6-12.6c0.1-1.7,1.6-3.1,3.3-3l0,0
						c1.7,0.1,3.1,1.6,3,3.3L556.6,454.2z"/>
				</g>
			</g>
		</g>
		<g>
			<path class="st14" d="M496.3,507.1c-0.7,3.6-4.2,6.1-7.7,5.4l-318.4-60.9c-3.6-0.7-5.9-4.2-5.2-7.9l15.3-81.4
				c0.7-3.6,4.2-6.1,7.7-5.4l318.4,60.9c3.6,0.7,5.9,4.2,5.2,7.9L496.3,507.1z"/>
			<path class="st13" d="M371.3,386.7l-3.9-0.7l1.4-7.9c1.4-8-3.9-15.7-11.9-17.2l-67.4-13c-5.1-1-9.4-3.9-12.2-8.2
				c-2.8-4.3-3.8-9.4-2.7-14.5c2.2-10,11.9-16.4,22-14.5l48.4,9.1c7.9,1.5,15.7-3.7,17.3-11.6l14.2-67.9l3.9,0.8l-14.2,67.9
				c-2.1,10-12,16.6-22,14.7l-48.4-9.1c-8-1.5-15.6,3.5-17.3,11.4c-0.9,4-0.1,8,2.1,11.4c2.2,3.4,5.7,5.7,9.6,6.4l67.4,13
				c10.1,1.9,16.8,11.7,15,21.8L371.3,386.7z"/>
			<g>
				<g>
					<g>
						<path class="st13" d="M200.5,377.7c-0.3,1.5-1.8,2.5-3.3,2.3l-9.6-1.8c-1.5-0.3-2.5-1.8-2.3-3.3l1.9-10
							c0.3-1.5,1.8-2.5,3.3-2.3l9.6,1.8c1.5,0.3,2.5,1.8,2.3,3.3L200.5,377.7z"/>
					</g>
					<g>
						<path class="st13" d="M219.8,381.4c-0.3,1.5-1.8,2.5-3.3,2.3l-9.6-1.8c-1.5-0.3-2.5-1.8-2.3-3.3l1.9-10
							c0.3-1.5,1.8-2.5,3.3-2.3l9.6,1.8c1.5,0.3,2.5,1.8,2.3,3.3L219.8,381.4z"/>
					</g>
				</g>
				<g>
					<g>
						<path class="st13" d="M239.1,385.1c-0.3,1.5-1.8,2.5-3.3,2.3l-9.6-1.8c-1.5-0.3-2.5-1.8-2.3-3.3l1.9-10
							c0.3-1.5,1.8-2.5,3.3-2.3l9.6,1.8c1.5,0.3,2.5,1.8,2.3,3.3L239.1,385.1z"/>
					</g>
					<g>
						<path class="st13" d="M258.4,388.8c-0.3,1.5-1.8,2.5-3.3,2.3l-9.6-1.8c-1.5-0.3-2.5-1.8-2.3-3.3l1.9-10
							c0.3-1.5,1.8-2.5,3.3-2.3l9.6,1.8c1.5,0.3,2.5,1.8,2.3,3.3L258.4,388.8z"/>
					</g>
				</g>
				<g>
					<g>
						<path class="st13" d="M277.7,392.5c-0.3,1.5-1.8,2.5-3.3,2.3l-9.6-1.8c-1.5-0.3-2.5-1.8-2.3-3.3l1.9-10
							c0.3-1.5,1.8-2.5,3.3-2.3l9.6,1.8c1.5,0.3,2.5,1.8,2.3,3.3L277.7,392.5z"/>
					</g>
					<g>
						<path class="st13" d="M297,396.2c-0.3,1.5-1.8,2.5-3.3,2.3l-9.6-1.8c-1.5-0.3-2.5-1.8-2.3-3.3l1.9-10c0.3-1.5,1.8-2.5,3.3-2.3
							l9.6,1.8c1.5,0.3,2.5,1.8,2.3,3.3L297,396.2z"/>
					</g>
				</g>
				<g>
					<g>
						<path class="st13" d="M316.3,399.9c-0.3,1.5-1.8,2.5-3.3,2.3l-9.6-1.8c-1.5-0.3-2.5-1.8-2.3-3.3l1.9-10
							c0.3-1.5,1.8-2.5,3.3-2.3l9.6,1.8c1.5,0.3,2.5,1.8,2.3,3.3L316.3,399.9z"/>
					</g>
					<g>
						<path class="st13" d="M335.5,403.6c-0.3,1.5-1.8,2.5-3.3,2.3l-9.6-1.8c-1.5-0.3-2.5-1.8-2.3-3.3l1.9-10
							c0.3-1.5,1.8-2.5,3.3-2.3l9.6,1.8c1.5,0.3,2.5,1.8,2.3,3.3L335.5,403.6z"/>
					</g>
				</g>
				<g>
					<path class="st13" d="M354.8,407.2c-0.3,1.5-1.8,2.5-3.3,2.3l-9.6-1.8c-1.5-0.3-2.5-1.8-2.3-3.3l1.9-10
						c0.3-1.5,1.8-2.5,3.3-2.3l9.6,1.8c1.5,0.3,2.5,1.8,2.3,3.3L354.8,407.2z"/>
				</g>
			</g>
			<g>
				<g>
					<g>
						<path class="st13" d="M196.3,400.4c-0.3,1.5-1.8,2.5-3.3,2.3l-9.6-1.8c-1.5-0.3-2.5-1.8-2.3-3.3l1.9-10
							c0.3-1.5,1.8-2.5,3.3-2.3l9.6,1.8c1.5,0.3,2.5,1.8,2.3,3.3L196.3,400.4z"/>
					</g>
					<g>
						<path class="st13" d="M215.6,404c-0.3,1.5-1.8,2.5-3.3,2.3l-9.6-1.8c-1.5-0.3-2.5-1.8-2.3-3.3l1.9-10c0.3-1.5,1.8-2.5,3.3-2.3
							l9.6,1.8c1.5,0.3,2.5,1.8,2.3,3.3L215.6,404z"/>
					</g>
				</g>
				<g>
					<g>
						<path class="st13" d="M234.8,407.7c-0.3,1.5-1.8,2.5-3.3,2.3l-9.6-1.8c-1.5-0.3-2.5-1.8-2.3-3.3l1.9-10
							c0.3-1.5,1.8-2.5,3.3-2.3l9.6,1.8c1.5,0.3,2.5,1.8,2.3,3.3L234.8,407.7z"/>
					</g>
					<g>
						<path class="st13" d="M254.1,411.4c-0.3,1.5-1.8,2.5-3.3,2.3l-9.6-1.8c-1.5-0.3-2.5-1.8-2.3-3.3l1.9-10
							c0.3-1.5,1.8-2.5,3.3-2.3l9.6,1.8c1.5,0.3,2.5,1.8,2.3,3.3L254.1,411.4z"/>
					</g>
				</g>
				<g>
					<g>
						<path class="st13" d="M273.4,415.1c-0.3,1.5-1.8,2.5-3.3,2.3l-9.6-1.8c-1.5-0.3-2.5-1.8-2.3-3.3l1.9-10
							c0.3-1.5,1.8-2.5,3.3-2.3l9.6,1.8c1.5,0.3,2.5,1.8,2.3,3.3L273.4,415.1z"/>
					</g>
					<g>
						<path class="st13" d="M292.7,418.8c-0.3,1.5-1.8,2.5-3.3,2.3l-9.6-1.8c-1.5-0.3-2.5-1.8-2.3-3.3l1.9-10
							c0.3-1.5,1.8-2.5,3.3-2.3l9.6,1.8c1.5,0.3,2.5,1.8,2.3,3.3L292.7,418.8z"/>
					</g>
				</g>
				<g>
					<g>
						<path class="st13" d="M312,422.5c-0.3,1.5-1.8,2.5-3.3,2.3l-9.6-1.8c-1.5-0.3-2.5-1.8-2.3-3.3l1.9-10c0.3-1.5,1.8-2.5,3.3-2.3
							l9.6,1.8c1.5,0.3,2.5,1.8,2.3,3.3L312,422.5z"/>
					</g>
					<g>
						<path class="st13" d="M331.3,426.2c-0.3,1.5-1.8,2.5-3.3,2.3l-9.6-1.8c-1.5-0.3-2.5-1.8-2.3-3.3l1.9-10
							c0.3-1.5,1.8-2.5,3.3-2.3l9.6,1.8c1.5,0.3,2.5,1.8,2.3,3.3L331.3,426.2z"/>
					</g>
				</g>
				<g>
					<path class="st13" d="M350.6,429.9c-0.3,1.5-1.8,2.5-3.3,2.3l-9.6-1.8c-1.5-0.3-2.5-1.8-2.3-3.3l1.9-10
						c0.3-1.5,1.8-2.5,3.3-2.3l9.6,1.8c1.5,0.3,2.5,1.8,2.3,3.3L350.6,429.9z"/>
				</g>
			</g>
			<g>
				<g>
					<g>
						<path class="st13" d="M211.3,426.7c-0.3,1.5-1.8,2.5-3.3,2.3l-28.9-5.5c-1.5-0.3-2.5-1.8-2.3-3.3l1.9-10
							c0.3-1.5,1.8-2.5,3.3-2.3l28.9,5.5c1.5,0.3,2.5,1.8,2.3,3.3L211.3,426.7z"/>
					</g>
					<g>
						<path class="st13" d="M211.3,426.7c-0.3,1.5-1.8,2.5-3.3,2.3l-9.6-1.8c-1.5-0.3-2.5-1.8-2.3-3.3l1.9-10
							c0.3-1.5,1.8-2.5,3.3-2.3l9.6,1.8c1.5,0.3,2.5,1.8,2.3,3.3L211.3,426.7z"/>
					</g>
				</g>
				<g>
					<g>
						<path class="st13" d="M230.6,430.3c-0.3,1.5-1.8,2.5-3.3,2.3l-9.6-1.8c-1.5-0.3-2.5-1.8-2.3-3.3l1.9-10
							c0.3-1.5,1.8-2.5,3.3-2.3l9.6,1.8c1.5,0.3,2.5,1.8,2.3,3.3L230.6,430.3z"/>
					</g>
					<g>
						<path class="st13" d="M249.9,434c-0.3,1.5-1.8,2.5-3.3,2.3l-9.6-1.8c-1.5-0.3-2.5-1.8-2.3-3.3l1.9-10c0.3-1.5,1.8-2.5,3.3-2.3
							l9.6,1.8c1.5,0.3,2.5,1.8,2.3,3.3L249.9,434z"/>
					</g>
				</g>
				<g>
					<g>
						<path class="st13" d="M269.2,437.7c-0.3,1.5-1.8,2.5-3.3,2.3l-9.6-1.8c-1.5-0.3-2.5-1.8-2.3-3.3l1.9-10
							c0.3-1.5,1.8-2.5,3.3-2.3l9.6,1.8c1.5,0.3,2.5,1.8,2.3,3.3L269.2,437.7z"/>
					</g>
					<g>
						<path class="st13" d="M288.5,441.4c-0.3,1.5-1.8,2.5-3.3,2.3l-9.6-1.8c-1.5-0.3-2.5-1.8-2.3-3.3l1.9-10
							c0.3-1.5,1.8-2.5,3.3-2.3l9.6,1.8c1.5,0.3,2.5,1.8,2.3,3.3L288.5,441.4z"/>
					</g>
				</g>
				<g>
					<path class="st13" d="M307.8,445.1c-0.3,1.5-1.8,2.5-3.3,2.3l-9.6-1.8c-1.5-0.3-2.5-1.8-2.3-3.3l1.9-10
						c0.3-1.5,1.8-2.5,3.3-2.3l9.6,1.8c1.5,0.3,2.5,1.8,2.3,3.3L307.8,445.1z"/>
				</g>
				<g>
					<path class="st13" d="M352.5,419.9c0.3-1.5-0.7-3-2.3-3.3l-9.6-1.8c-1.5-0.3-3,0.7-3.3,2.3l-3,16.1c-0.4,2-2.3,3.4-4.3,3
						l-12.9-2.5c-1.5-0.3-3,0.7-3.3,2.3l-1.9,10c-0.3,1.5,0.7,3,2.3,3.3l13.7,2.6c1.5,0.3,4,0.8,5.6,1.1l8.1,1.6
						c2.4,0.4,4.6-1.1,5.1-3.6L352.5,419.9z"/>
				</g>
			</g>
			<g>
				<g>
					<path class="st13" d="M187.8,445.6c-0.3,1.5-1.8,2.5-3.3,2.3l-9.6-1.8c-1.5-0.3-2.5-1.8-2.3-3.3l1.9-10
						c0.3-1.5,1.8-2.5,3.3-2.3l9.6,1.8c1.5,0.3,2.5,1.8,2.3,3.3L187.8,445.6z"/>
				</g>
				<g>
					<path class="st13" d="M207.1,449.3c-0.3,1.5-1.8,2.5-3.3,2.3l-9.6-1.8c-1.5-0.3-2.5-1.8-2.3-3.3l1.9-10
						c0.3-1.5,1.8-2.5,3.3-2.3l9.6,1.8c1.5,0.3,2.5,1.8,2.3,3.3L207.1,449.3z"/>
				</g>
			</g>
			<g>
				<path class="st13" d="M289.4,451.8c-1.5-0.3-4-0.8-5.6-1.1l-2.6-0.5c-1.5-0.3-4-0.8-5.6-1.1l-1.5-0.3c-1.5-0.3-4-0.8-5.6-1.1
					l-3.2-0.6c-1.5-0.3-4-0.8-5.6-1.1l-1-0.2c-1.5-0.3-4-0.8-5.6-1.1l-3.2-0.6c-1.5-0.3-4-0.8-5.6-1.1l-4.2-0.8
					c-1.5-0.3-4-0.8-5.5-1.1c-1.5-0.3-4-0.8-5.5-1.1l-13-2.5c-1.5-0.3-3,0.7-3.3,2.3l-1.9,10c-0.3,1.5,0.7,3,2.3,3.3l13,2.5
					c1.5,0.3,4,0.8,5.5,1.1c1.5,0.3,4,0.8,5.5,1.1l4.2,0.8c1.5,0.3,4,0.8,5.6,1.1l3.2,0.6c1.5,0.3,4,0.8,5.6,1.1l1,0.2
					c1.5,0.3,4,0.8,5.6,1.1l3.2,0.6c1.5,0.3,4,0.8,5.6,1.1l1.5,0.3c1.5,0.3,4,0.8,5.6,1.1l2.6,0.5c1.5,0.3,4,0.8,5.6,1.1l10.2,2
					c1.5,0.3,3-0.7,3.3-2.3l1.9-10c0.3-1.5-0.7-3-2.3-3.3L289.4,451.8z"/>
			</g>
			<g>
				<path class="st13" d="M322.8,471.4c-0.3,1.5-1.8,2.5-3.3,2.3l-9.6-1.8c-1.5-0.3-2.5-1.8-2.3-3.3l1.9-10c0.3-1.5,1.8-2.5,3.3-2.3
					l9.6,1.8c1.5,0.3,2.5,1.8,2.3,3.3L322.8,471.4z"/>
			</g>
			<g>
				<path class="st13" d="M342.1,475.1c-0.3,1.5-1.8,2.5-3.3,2.3l-9.6-1.8c-1.5-0.3-2.5-1.8-2.3-3.3l1.9-10c0.3-1.5,1.8-2.5,3.3-2.3
					l9.6,1.8c1.5,0.3,2.5,1.8,2.3,3.3L342.1,475.1z"/>
			</g>
			<g>
				<g>
					<g>
						<path class="st13" d="M389.3,413.8c-0.3,1.5-1.8,2.5-3.3,2.3l-9.6-1.8c-1.5-0.3-2.5-1.8-2.3-3.3l1.9-10
							c0.3-1.5,1.8-2.5,3.3-2.3l9.6,1.8c1.5,0.3,2.5,1.8,2.3,3.3L389.3,413.8z"/>
					</g>
					<g>
						<path class="st13" d="M408.6,417.5c-0.3,1.5-1.8,2.5-3.3,2.3l-9.6-1.8c-1.5-0.3-2.5-1.8-2.3-3.3l1.9-10
							c0.3-1.5,1.8-2.5,3.3-2.3l9.6,1.8c1.5,0.3,2.5,1.8,2.3,3.3L408.6,417.5z"/>
					</g>
				</g>
				<g>
					<path class="st13" d="M427.9,421.2c-0.3,1.5-1.8,2.5-3.3,2.3l-9.6-1.8c-1.5-0.3-2.5-1.8-2.3-3.3l1.9-10
						c0.3-1.5,1.8-2.5,3.3-2.3l9.6,1.8c1.5,0.3,2.5,1.8,2.3,3.3L427.9,421.2z"/>
				</g>
			</g>
			<g>
				<g>
					<path class="st13" d="M385,436.4c-0.3,1.5-1.8,2.5-3.3,2.3l-9.6-1.8c-1.5-0.3-2.5-1.8-2.3-3.3l1.9-10c0.3-1.5,1.8-2.5,3.3-2.3
						l9.6,1.8c1.5,0.3,2.5,1.8,2.3,3.3L385,436.4z"/>
				</g>
				<g>
					<path class="st13" d="M404.3,440.1c-0.3,1.5-1.8,2.5-3.3,2.3l-9.6-1.8c-1.5-0.3-2.5-1.8-2.3-3.3l1.9-10
						c0.3-1.5,1.8-2.5,3.3-2.3l9.6,1.8c1.5,0.3,2.5,1.8,2.3,3.3L404.3,440.1z"/>
				</g>
			</g>
			<g>
				<path class="st13" d="M423.6,443.8c-0.3,1.5-1.8,2.5-3.3,2.3l-9.6-1.8c-1.5-0.3-2.5-1.8-2.3-3.3l1.9-10c0.3-1.5,1.8-2.5,3.3-2.3
					l9.6,1.8c1.5,0.3,2.5,1.8,2.3,3.3L423.6,443.8z"/>
			</g>
			<g>
				<g>
					<path class="st13" d="M376.5,481.7c-0.3,1.5-1.8,2.5-3.3,2.3l-9.6-1.8c-1.5-0.3-2.5-1.8-2.3-3.3l1.9-10
						c0.3-1.5,1.8-2.5,3.3-2.3l9.6,1.8c1.5,0.3,2.5,1.8,2.3,3.3L376.5,481.7z"/>
				</g>
				<g>
					<path class="st13" d="M395.8,485.4c-0.3,1.5-1.8,2.5-3.3,2.3l-9.6-1.8c-1.5-0.3-2.5-1.8-2.3-3.3l1.9-10
						c0.3-1.5,1.8-2.5,3.3-2.3l9.6,1.8c1.5,0.3,2.5,1.8,2.3,3.3L395.8,485.4z"/>
				</g>
			</g>
			<g>
				<path class="st13" d="M415.1,489c-0.3,1.5-1.8,2.5-3.3,2.3l-9.6-1.8c-1.5-0.3-2.5-1.8-2.3-3.3l1.9-10c0.3-1.5,1.8-2.5,3.3-2.3
					l9.6,1.8c1.5,0.3,2.5,1.8,2.3,3.3L415.1,489z"/>
			</g>
			<g>
				<path class="st13" d="M400.1,462.7c-0.3,1.5-1.8,2.5-3.3,2.3l-9.6-1.8c-1.5-0.3-2.5-1.8-2.3-3.3l1.9-10c0.3-1.5,1.8-2.5,3.3-2.3
					l9.6,1.8c1.5,0.3,2.5,1.8,2.3,3.3L400.1,462.7z"/>
			</g>
			<g>
				<g>
					<g>
						<path class="st13" d="M465.1,428.3c-0.3,1.5-1.8,2.5-3.3,2.3l-9.6-1.8c-1.5-0.3-2.5-1.8-2.3-3.3l1.9-10
							c0.3-1.5,1.8-2.5,3.3-2.3l9.6,1.8c1.5,0.3,2.5,1.8,2.3,3.3L465.1,428.3z"/>
					</g>
					<g>
						<path class="st13" d="M484.4,432c-0.3,1.5-1.8,2.5-3.3,2.3l-9.6-1.8c-1.5-0.3-2.5-1.8-2.3-3.3l1.9-10c0.3-1.5,1.8-2.5,3.3-2.3
							l9.6,1.8c1.5,0.3,2.5,1.8,2.3,3.3L484.4,432z"/>
					</g>
				</g>
				<g>
					<path class="st13" d="M503.7,435.7c-0.3,1.5-1.8,2.5-3.3,2.3l-9.6-1.8c-1.5-0.3-2.5-1.8-2.3-3.3l1.9-10
						c0.3-1.5,1.8-2.5,3.3-2.3l9.6,1.8c1.5,0.3,2.5,1.8,2.3,3.3L503.7,435.7z"/>
				</g>
			</g>
			<g>
				<g>
					<g>
						<path class="st13" d="M460.8,450.9c-0.3,1.5-1.8,2.5-3.3,2.3l-9.6-1.8c-1.5-0.3-2.5-1.8-2.3-3.3l1.9-10
							c0.3-1.5,1.8-2.5,3.3-2.3l9.6,1.8c1.5,0.3,2.5,1.8,2.3,3.3L460.8,450.9z"/>
					</g>
					<g>
						<path class="st13" d="M480.1,454.6c-0.3,1.5-1.8,2.5-3.3,2.3l-9.6-1.8c-1.5-0.3-2.5-1.8-2.3-3.3l1.9-10
							c0.3-1.5,1.8-2.5,3.3-2.3l9.6,1.8c1.5,0.3,2.5,1.8,2.3,3.3L480.1,454.6z"/>
					</g>
				</g>
				<g>
					<path class="st13" d="M499.4,458.3c-0.3,1.5-1.8,2.5-3.3,2.3l-9.6-1.8c-1.5-0.3-2.5-1.8-2.3-3.3l1.9-10
						c0.3-1.5,1.8-2.5,3.3-2.3l9.6,1.8c1.5,0.3,2.5,1.8,2.3,3.3L499.4,458.3z"/>
				</g>
			</g>
			<g>
				<g>
					<g>
						<path class="st13" d="M456.6,473.5c-0.3,1.5-1.8,2.5-3.3,2.3l-9.6-1.8c-1.5-0.3-2.5-1.8-2.3-3.3l1.9-10
							c0.3-1.5,1.8-2.5,3.3-2.3l9.6,1.8c1.5,0.3,2.5,1.8,2.3,3.3L456.6,473.5z"/>
					</g>
					<g>
						<path class="st13" d="M475.9,477.2c-0.3,1.5-1.8,2.5-3.3,2.3l-9.6-1.8c-1.5-0.3-2.5-1.8-2.3-3.3l1.9-10
							c0.3-1.5,1.8-2.5,3.3-2.3l9.6,1.8c1.5,0.3,2.5,1.8,2.3,3.3L475.9,477.2z"/>
					</g>
				</g>
				<g>
					<path class="st13" d="M495.1,480.9c-0.3,1.5-1.8,2.5-3.3,2.3l-9.6-1.8c-1.5-0.3-2.5-1.8-2.3-3.3l1.9-10
						c0.3-1.5,1.8-2.5,3.3-2.3l9.6,1.8c1.5,0.3,2.5,1.8,2.3,3.3L495.1,480.9z"/>
				</g>
			</g>
			<g>
				<g>
					<g>
						<path class="st13" d="M452.3,496.2c-0.3,1.5-1.8,2.5-3.3,2.3l-9.6-1.8c-1.5-0.3-2.5-1.8-2.3-3.3l1.9-10
							c0.3-1.5,1.8-2.5,3.3-2.3l9.6,1.8c1.5,0.3,2.5,1.8,2.3,3.3L452.3,496.2z"/>
					</g>
					<g>
						<path class="st13" d="M471.6,499.8c-0.3,1.5-1.8,2.5-3.3,2.3l-9.6-1.8c-1.5-0.3-2.5-1.8-2.3-3.3l1.9-10
							c0.3-1.5,1.8-2.5,3.3-2.3l9.6,1.8c1.5,0.3,2.5,1.8,2.3,3.3L471.6,499.8z"/>
					</g>
				</g>
				<g>
					<path class="st13" d="M490.9,503.5c-0.3,1.5-1.8,2.5-3.3,2.3L478,504c-1.5-0.3-2.5-1.8-2.3-3.3l1.9-10c0.3-1.5,1.8-2.5,3.3-2.3
						l9.6,1.8c1.5,0.3,2.5,1.8,2.3,3.3L490.9,503.5z"/>
				</g>
			</g>
		</g>
		<g>
			<g>
				<polygon class="st15" points="850.2,113.5 932.1,207.5 1049.2,106.5 967.3,12.4 				"/>
				
					<rect x="876.3" y="145.5" transform="matrix(-0.6569 -0.754 0.754 -0.6569 1391.1949 927.196)" class="st16" width="60.5" height="3.1"/>
				
					<rect x="861.5" y="140.4" transform="matrix(-0.6569 -0.754 0.754 -0.6569 1404.7367 923.1596)" class="st16" width="101.8" height="3.1"/>
				
					<rect x="865.6" y="136.8" transform="matrix(-0.6569 -0.754 0.754 -0.6569 1414.2156 920.3362)" class="st16" width="101.8" height="3.1"/>
				
					<rect x="869.7" y="133.3" transform="matrix(-0.6569 -0.754 0.754 -0.6569 1423.6857 917.5157)" class="st16" width="101.8" height="3.1"/>
				
					<rect x="873.8" y="129.7" transform="matrix(-0.6569 -0.754 0.754 -0.6569 1433.1638 914.6904)" class="st16" width="101.8" height="3.1"/>
				
					<rect x="886.1" y="119" transform="matrix(-0.6569 -0.754 0.754 -0.6569 1461.6205 906.2008)" class="st16" width="101.8" height="3.1"/>
				
					<rect x="890.2" y="115.4" transform="matrix(-0.6569 -0.754 0.754 -0.6569 1471.0773 903.3922)" class="st16" width="101.8" height="3.1"/>
				
					<rect x="903" y="92.7" transform="matrix(-0.6568 -0.754 0.754 -0.6568 1467.2919 856.1905)" class="st16" width="50.9" height="3.1"/>
				
					<rect x="932.1" y="78.9" transform="matrix(-0.6569 -0.754 0.754 -0.6569 1568.0621 874.4899)" class="st16" width="101.8" height="3.1"/>
				
					<rect x="936.2" y="75.3" transform="matrix(-0.6569 -0.754 0.754 -0.6569 1577.5374 871.6665)" class="st16" width="101.8" height="3.1"/>
				
					<rect x="949" y="52.6" transform="matrix(-0.6569 -0.754 0.754 -0.6569 1573.7653 824.4579)" class="st16" width="50.9" height="3.1"/>
			</g>
			<g>
				<polygon class="st17" points="950.3,6.5 1040.8,92.3 934.8,205 844.4,119.1 				"/>
				
					<rect x="951.2" y="62.7" transform="matrix(-0.7254 -0.6883 0.6883 -0.7254 1649.2239 786.3827)" class="st16" width="60.5" height="3.1"/>
				
					<rect x="925.2" y="68.3" transform="matrix(-0.7254 -0.6883 0.6883 -0.7254 1636.1315 792.4211)" class="st16" width="101.8" height="3.1"/>
				
					<rect x="921.5" y="72.2" transform="matrix(-0.7254 -0.6883 0.6883 -0.7254 1626.9661 796.6487)" class="st16" width="101.8" height="3.1"/>
				
					<rect x="917.7" y="76.2" transform="matrix(-0.7254 -0.6883 0.6883 -0.7254 1617.8069 800.8689)" class="st16" width="101.8" height="3.1"/>
				
					<rect x="914" y="80.1" transform="matrix(-0.7254 -0.6883 0.6883 -0.7254 1608.6423 805.0944)" class="st16" width="101.8" height="3.1"/>
				
					<rect x="902.8" y="92" transform="matrix(-0.7254 -0.6883 0.6883 -0.7254 1581.127 817.7919)" class="st16" width="101.8" height="3.1"/>
				
					<rect x="899.1" y="95.9" transform="matrix(-0.7254 -0.6883 0.6883 -0.7254 1571.9816 822.0023)" class="st16" width="101.8" height="3.1"/>
				
					<rect x="902.3" y="82.3" transform="matrix(-0.7254 -0.6883 0.6883 -0.7254 1543.0504 783.2671)" class="st16" width="50.9" height="3.1"/>
				
					<rect x="860.8" y="136.2" transform="matrix(-0.7254 -0.6883 0.6883 -0.7254 1478.1998 865.2432)" class="st16" width="101.8" height="3.1"/>
				
					<rect x="857" y="140.2" transform="matrix(-0.7254 -0.6883 0.6883 -0.7254 1469.0365 869.4673)" class="st16" width="101.8" height="3.1"/>
				
					<rect x="860.3" y="126.6" transform="matrix(-0.7254 -0.6883 0.6883 -0.7254 1440.0951 830.7458)" class="st16" width="50.9" height="3.1"/>
			</g>
		</g>
		<g>
			<g>
				<g>
					<path class="st13" d="M1043.9,389c6.3-3.9,13.7-7.5,21.3-10.3l0.9,0.9c-7.7,2.8-15.2,6.5-21.6,10.4L1043.9,389L1043.9,389z"/>
					<g>
						<path class="st17" d="M741.1,403.5l299.5-116.8c3.8-1.5,8.2,0.4,9.7,4.3l75.8,194.3c1.5,3.8-0.4,8.2-4.3,9.7L822.4,611.7
							c-3.8,1.5-8.2-0.4-9.7-4.3l-75.8-194.3C735.4,409.3,737.3,405,741.1,403.5z"/>
						<path class="st18" d="M754.7,398.2l17.4-6.8l3.9,9.9c0.4,0.9-0.1,1.9-1,2.3l-14.1,5.5c-0.9,0.4-1.9-0.1-2.3-1L754.7,398.2z"/>
						<path class="st18" d="M1009.7,298.7l17.4-6.8l3.9,9.9c0.3,0.9-0.1,1.9-1,2.3l-14.1,5.5c-0.9,0.3-1.9-0.1-2.3-1L1009.7,298.7z"
							/>
						<path class="st19" d="M688.8,354.8l356.8-139.2c8.6-3.3,12.8-0.4,11.4,6.5l-11.6,58.5l-312.7,122l-43-31.7
							C680.1,363.9,679.4,358.5,688.8,354.8z"/>
						<polygon class="st20" points="1040.6,234.1 1032.9,278.3 740.7,392.3 704.8,365 						"/>
						<path class="st17" d="M687.4,356.9L1049,215.8c0.8-0.3,1.6,0.1,1.9,0.8l0,0c0.3,0.8-0.1,1.6-0.8,1.9L688.4,359.7
							c-0.8,0.3-1.6-0.1-1.9-0.9l0,0C686.2,358.1,686.6,357.2,687.4,356.9z"/>
						<path class="st17" d="M753.7,388.2l12.4-4.9c0.8-0.3,1.7,0.1,2,0.9l5.7,14.7c0.3,0.8-0.1,1.7-0.9,2l-12.4,4.9
							c-0.8,0.3-1.7-0.1-2-0.9l-5.7-14.7C752.5,389.4,752.9,388.5,753.7,388.2z"/>
						<path class="st17" d="M1008.7,288.8l12.4-4.9c0.8-0.3,1.7,0.1,2,0.9l5.7,14.7c0.3,0.8-0.1,1.7-0.9,2l-12.4,4.8
							c-0.8,0.3-1.7-0.1-2-0.9l-5.7-14.7C1007.5,290,1007.9,289.1,1008.7,288.8z"/>
						<path class="st16" d="M1028,323.6l9.7-3.8c1.1-0.4,2.3,0.1,2.8,1.2l2.8,7.2c0.4,1.1-0.1,2.3-1.2,2.8l-9.7,3.8
							c-1.1,0.4-2.3-0.1-2.8-1.2l-2.8-7.2C1026.3,325.2,1026.9,324,1028,323.6z"/>
						<path class="st16" d="M1033.8,337.1l8.8-3.4c1.3-0.5,2.9,0.1,3.4,1.5l3.8,9.7c0.5,1.3-0.1,2.9-1.5,3.4l-8.8,3.4
							c-1.3,0.5-2.9-0.1-3.4-1.5l-3.8-9.7C1031.8,339.2,1032.4,337.6,1033.8,337.1z"/>
						<path class="st16" d="M1040.5,354.3l8.8-3.4c1.3-0.5,2.9,0.1,3.4,1.5l3.8,9.7c0.5,1.3-0.1,2.9-1.5,3.4l-8.8,3.4
							c-1.3,0.5-2.9-0.1-3.4-1.5l-3.8-9.7C1038.5,356.3,1039.1,354.8,1040.5,354.3z"/>
						<path class="st16" d="M1047.2,371.4l8.8-3.4c1.3-0.5,2.9,0.1,3.4,1.5l3.8,9.7c0.5,1.3-0.1,2.9-1.5,3.4l-8.8,3.4
							c-1.3,0.5-2.9-0.1-3.4-1.5l-3.8-9.7C1045.1,373.5,1045.8,371.9,1047.2,371.4z"/>
						<path class="st16" d="M1053.8,388.6l8.8-3.4c1.3-0.5,2.9,0.1,3.4,1.5l3.8,9.7c0.5,1.3-0.1,2.9-1.5,3.4l-8.8,3.4
							c-1.3,0.5-2.9-0.1-3.4-1.5l-3.8-9.7C1051.8,390.6,1052.5,389.1,1053.8,388.6z"/>
						<path class="st16" d="M1060.5,405.7l8.8-3.4c1.3-0.5,2.9,0.1,3.4,1.5l3.8,9.7c0.5,1.3-0.1,2.9-1.5,3.4l-8.8,3.4
							c-1.3,0.5-2.9-0.1-3.4-1.5l-3.8-9.7C1058.5,407.8,1059.2,406.2,1060.5,405.7z"/>
						<path class="st16" d="M1010.9,330.2l9.7-3.8c1.1-0.4,2.3,0.1,2.8,1.2l2.8,7.2c0.4,1.1-0.1,2.3-1.2,2.8l-9.7,3.8
							c-1.1,0.4-2.3-0.1-2.8-1.2l-2.8-7.2C1009.2,331.9,1009.8,330.7,1010.9,330.2z"/>
						<path class="st16" d="M1001.1,349.9l24.2-9.5c1.4-0.6,3.1,0.2,3.6,1.6l3.7,9.4c0.6,1.4-0.2,3.1-1.6,3.6l-24.2,9.5
							c-1.4,0.6-3.1-0.2-3.6-1.6l-3.7-9.4C998.9,352.1,999.6,350.4,1001.1,349.9z"/>
						<path class="st16" d="M1018.9,362.7l13.1-5.1c1.4-0.6,3.1,0.2,3.6,1.6l3.7,9.4c0.6,1.4-0.2,3.1-1.6,3.6l-13.1,5.1
							c-1.4,0.6-3.1-0.2-3.6-1.6l-3.7-9.4C1016.7,364.9,1017.4,363.2,1018.9,362.7z"/>
						<path class="st16" d="M1012.5,384.9l26.2-10.2c1.4-0.6,3.1,0.2,3.6,1.6l3.7,9.4c0.6,1.4-0.2,3.1-1.6,3.6l-26.2,10.2
							c-1.4,0.6-3.1-0.2-3.6-1.6l-3.7-9.4C1010.4,387.1,1011.1,385.5,1012.5,384.9z"/>
						<path class="st16" d="M1036.8,395.2l8.8-3.4c1.3-0.5,2.9,0.1,3.4,1.5l3.8,9.7c0.5,1.3-0.1,2.9-1.5,3.4l-8.8,3.4
							c-1.3,0.5-2.9-0.1-3.4-1.5l-3.8-9.7C1034.7,397.3,1035.4,395.7,1036.8,395.2z"/>
						<path class="st16" d="M1043.4,412.4l8.8-3.4c1.3-0.5,2.9,0.1,3.4,1.5l3.8,9.7c0.5,1.3-0.1,2.9-1.5,3.4l-8.8,3.4
							c-1.3,0.5-2.9-0.1-3.4-1.5l-3.8-9.7C1041.4,414.4,1042.1,412.9,1043.4,412.4z"/>
						<path class="st16" d="M995.1,336.4l8.4-3.3c1.1-0.4,2.3,0.1,2.8,1.2l2.8,7.2c0.4,1.1-0.1,2.4-1.2,2.8l-8.4,3.3
							c-1.1,0.4-2.3-0.1-2.8-1.2l-2.8-7.2C993.5,338.1,994,336.8,995.1,336.4z"/>
						<path class="st16" d="M979.1,342.6l8.4-3.3c1.1-0.4,2.3,0.1,2.8,1.2l2.8,7.2c0.4,1.1-0.1,2.4-1.2,2.8l-8.4,3.3
							c-1.1,0.4-2.3-0.1-2.8-1.2l-2.8-7.2C977.4,344.3,978,343.1,979.1,342.6z"/>
						<path class="st16" d="M963,348.9l8.4-3.3c1.1-0.4,2.3,0.1,2.8,1.2l2.8,7.2c0.4,1.1-0.1,2.3-1.2,2.8l-8.4,3.3
							c-1.1,0.4-2.3-0.1-2.8-1.2l-2.8-7.2C961.4,350.6,961.9,349.3,963,348.9z"/>
						<path class="st16" d="M947,355.2l8.4-3.3c1.1-0.4,2.3,0.1,2.8,1.2l2.8,7.2c0.4,1.1-0.1,2.3-1.2,2.8l-8.4,3.3
							c-1.1,0.4-2.3-0.1-2.8-1.2l-2.8-7.2C945.3,356.8,945.9,355.6,947,355.2z"/>
						<path class="st16" d="M930.9,361.4l8.4-3.3c1.1-0.4,2.3,0.1,2.8,1.2l2.8,7.2c0.4,1.1-0.1,2.3-1.2,2.8l-8.4,3.3
							c-1.1,0.4-2.3-0.1-2.8-1.2l-2.8-7.2C929.3,363.1,929.8,361.8,930.9,361.4z"/>
						<path class="st16" d="M914.9,367.7l8.4-3.3c1.1-0.4,2.3,0.1,2.8,1.2l2.8,7.2c0.4,1.1-0.1,2.3-1.2,2.8l-8.4,3.3
							c-1.1,0.4-2.3-0.1-2.8-1.2l-2.8-7.2C913.2,369.3,913.8,368.1,914.9,367.7z"/>
						<path class="st16" d="M898.9,373.9l8.4-3.3c1.1-0.4,2.3,0.1,2.8,1.2l2.8,7.2c0.4,1.1-0.1,2.3-1.2,2.8l-8.4,3.3
							c-1.1,0.4-2.3-0.1-2.8-1.2l-2.8-7.2C897.2,375.6,897.8,374.4,898.9,373.9z"/>
						<path class="st16" d="M882.8,380.2l8.4-3.3c1.1-0.4,2.3,0.1,2.8,1.2l2.8,7.2c0.4,1.1-0.1,2.3-1.2,2.8l-8.4,3.3
							c-1.1,0.4-2.3-0.1-2.8-1.2l-2.8-7.2C881.2,381.9,881.7,380.6,882.8,380.2z"/>
						<path class="st16" d="M866.8,386.4l8.4-3.3c1.1-0.4,2.3,0.1,2.8,1.2l2.8,7.2c0.4,1.1-0.1,2.3-1.2,2.8l-8.4,3.3
							c-1.1,0.4-2.3-0.1-2.8-1.2l-2.8-7.2C865.1,388.1,865.7,386.9,866.8,386.4z"/>
						<path class="st16" d="M850.7,392.7l8.4-3.3c1.1-0.4,2.3,0.1,2.8,1.2l2.8,7.2c0.4,1.1-0.1,2.3-1.2,2.8l-8.4,3.3
							c-1.1,0.4-2.3-0.1-2.8-1.2l-2.8-7.2C849.1,394.4,849.6,393.1,850.7,392.7z"/>
						<path class="st16" d="M834.7,399l8.4-3.3c1.1-0.4,2.3,0.1,2.8,1.2l2.8,7.2c0.4,1.1-0.1,2.4-1.2,2.8l-8.4,3.3
							c-1.1,0.4-2.3-0.1-2.8-1.2l-2.8-7.2C833,400.6,833.6,399.4,834.7,399z"/>
						<path class="st16" d="M818.6,405.2l8.4-3.3c1.1-0.4,2.3,0.1,2.8,1.2l2.8,7.2c0.4,1.1-0.1,2.4-1.2,2.8l-8.4,3.3
							c-1.1,0.4-2.3-0.1-2.8-1.2l-2.8-7.2C817,406.9,817.5,405.6,818.6,405.2z"/>
						<path class="st16" d="M802.6,411.5l8.4-3.3c1.1-0.4,2.3,0.1,2.8,1.2l2.8,7.2c0.4,1.1-0.1,2.3-1.2,2.8l-8.4,3.3
							c-1.1,0.4-2.3-0.1-2.8-1.2l-2.8-7.2C801,413.1,801.5,411.9,802.6,411.5z"/>
						<path class="st16" d="M786.6,417.7l8.4-3.3c1.1-0.4,2.3,0.1,2.8,1.2l2.8,7.2c0.4,1.1-0.1,2.3-1.2,2.8l-8.4,3.3
							c-1.1,0.4-2.3-0.1-2.8-1.2l-2.8-7.2C784.9,419.4,785.5,418.2,786.6,417.7z"/>
						<path class="st16" d="M768.5,424.8l9.7-3.8c1.1-0.4,2.3,0.1,2.8,1.2l2.8,7.2c0.4,1.1-0.1,2.3-1.2,2.8l-9.7,3.8
							c-1.1,0.4-2.3-0.1-2.8-1.2l-2.8-7.2C766.9,426.4,767.4,425.2,768.5,424.8z"/>
						<path class="st16" d="M983.8,356.6l8.6-3.4c1.3-0.5,2.8,0.1,3.3,1.5l3.8,9.8c0.5,1.3-0.1,2.8-1.5,3.3l-8.6,3.4
							c-1.3,0.5-2.8-0.1-3.3-1.5l-3.8-9.8C981.8,358.6,982.4,357.1,983.8,356.6z"/>
						<path class="st16" d="M966.4,363.4l8.6-3.4c1.3-0.5,2.8,0.1,3.3,1.5l3.8,9.8c0.5,1.3-0.1,2.8-1.5,3.3l-8.6,3.4
							c-1.3,0.5-2.8-0.1-3.3-1.5l-3.8-9.8C964.4,365.4,965,363.9,966.4,363.4z"/>
						<path class="st16" d="M949,370.2l8.6-3.4c1.3-0.5,2.8,0.1,3.3,1.5l3.8,9.8c0.5,1.3-0.1,2.8-1.5,3.3l-8.6,3.4
							c-1.3,0.5-2.8-0.1-3.3-1.5l-3.8-9.8C947,372.2,947.6,370.7,949,370.2z"/>
						<path class="st16" d="M931.5,377l8.6-3.4c1.3-0.5,2.8,0.1,3.3,1.5l3.8,9.8c0.5,1.3-0.1,2.8-1.5,3.3l-8.6,3.4
							c-1.3,0.5-2.8-0.1-3.3-1.5l-3.8-9.8C929.6,379,930.2,377.5,931.5,377z"/>
						<path class="st16" d="M914.1,383.8l8.6-3.4c1.3-0.5,2.8,0.1,3.3,1.5l3.8,9.8c0.5,1.3-0.1,2.8-1.5,3.3l-8.6,3.4
							c-1.3,0.5-2.8-0.1-3.3-1.5l-3.8-9.8C912.2,385.8,912.8,384.3,914.1,383.8z"/>
						<path class="st16" d="M896.7,390.6l8.6-3.4c1.3-0.5,2.8,0.1,3.3,1.5l3.8,9.8c0.5,1.3-0.1,2.8-1.5,3.3l-8.6,3.4
							c-1.3,0.5-2.8-0.1-3.3-1.5l-3.8-9.8C894.8,392.6,895.4,391.1,896.7,390.6z"/>
						<path class="st16" d="M879.3,397.3l8.6-3.4c1.3-0.5,2.8,0.1,3.3,1.5l3.8,9.8c0.5,1.3-0.1,2.8-1.5,3.3L885,412
							c-1.3,0.5-2.8-0.1-3.3-1.5l-3.8-9.8C877.4,399.4,878,397.9,879.3,397.3z"/>
						<path class="st16" d="M861.9,404.1l8.6-3.4c1.3-0.5,2.8,0.1,3.3,1.5l3.8,9.8c0.5,1.3-0.1,2.8-1.5,3.3l-8.6,3.4
							c-1.3,0.5-2.8-0.1-3.3-1.5l-3.8-9.8C860,406.1,860.6,404.6,861.9,404.1z"/>
						<path class="st16" d="M844.5,410.9l8.6-3.4c1.3-0.5,2.8,0.1,3.3,1.5l3.8,9.8c0.5,1.3-0.1,2.8-1.5,3.3l-8.6,3.4
							c-1.3,0.5-2.8-0.1-3.3-1.5l-3.8-9.8C842.5,412.9,843.2,411.4,844.5,410.9z"/>
						<path class="st16" d="M827.1,417.7l8.6-3.4c1.3-0.5,2.8,0.1,3.3,1.5l3.8,9.8c0.5,1.3-0.1,2.8-1.5,3.3l-8.6,3.4
							c-1.3,0.5-2.8-0.1-3.3-1.5l-3.8-9.8C825.1,419.7,825.8,418.2,827.1,417.7z"/>
						<path class="st16" d="M809.7,424.5l8.6-3.4c1.3-0.5,2.8,0.1,3.3,1.5l3.8,9.8c0.5,1.3-0.1,2.8-1.5,3.3l-8.6,3.4
							c-1.3,0.5-2.8-0.1-3.3-1.5l-3.8-9.8C807.7,426.5,808.4,425,809.7,424.5z"/>
						<path class="st16" d="M792.3,431.3l8.6-3.4c1.3-0.5,2.8,0.1,3.3,1.5l3.8,9.8c0.5,1.3-0.1,2.8-1.5,3.3l-8.6,3.4
							c-1.3,0.5-2.8-0.1-3.3-1.5l-3.8-9.8C790.3,433.3,791,431.8,792.3,431.3z"/>
						<path class="st16" d="M774.3,438.3l8.8-3.4c1.3-0.5,2.9,0.1,3.4,1.5l3.8,9.7c0.5,1.3-0.1,2.9-1.5,3.4l-8.8,3.4
							c-1.3,0.5-2.9-0.1-3.4-1.5l-3.8-9.7C772.3,440.3,773,438.8,774.3,438.3z"/>
						<path class="st16" d="M781.2,455.4l18.1-7.1c1.4-0.6,3.1,0.2,3.6,1.6l3.7,9.4c0.6,1.4-0.2,3.1-1.6,3.6l-18.1,7.1
							c-1.4,0.6-3.1-0.2-3.6-1.6l-3.7-9.4C779,457.6,779.8,455.9,781.2,455.4z"/>
						<path class="st16" d="M787.9,472.5l21.5-8.4c1.4-0.6,3.1,0.2,3.6,1.6l3.7,9.4c0.6,1.4-0.2,3.1-1.6,3.6l-21.5,8.4
							c-1.4,0.6-3.1-0.2-3.6-1.6l-3.7-9.4C785.7,474.7,786.4,473.1,787.9,472.5z"/>
						<path class="st16" d="M794.6,489.7l30.8-12c1.4-0.6,3.1,0.2,3.6,1.6l3.7,9.4c0.6,1.4-0.2,3.1-1.6,3.6l-30.8,12
							c-1.4,0.6-3.1-0.2-3.6-1.6l-3.7-9.4C792.4,491.9,793.1,490.2,794.6,489.7z"/>
						<path class="st16" d="M801.3,506.8l12.8-5c1.4-0.6,3.1,0.2,3.6,1.6l3.7,9.4c0.6,1.4-0.2,3.1-1.6,3.6l-12.8,5
							c-1.4,0.6-3.1-0.2-3.6-1.6l-3.7-9.4C799.1,509,799.8,507.4,801.3,506.8z"/>
						<path class="st16" d="M806.6,445.5l9.2-3.6c1.4-0.6,3,0.2,3.6,1.6l3.7,9.5c0.5,1.4-0.2,3-1.6,3.6l-9.2,3.6
							c-1.4,0.6-3-0.2-3.6-1.6l-3.7-9.5C804.5,447.6,805.2,446,806.6,445.5z"/>
						<path class="st16" d="M824.4,438.5l9.2-3.6c1.4-0.5,3,0.2,3.6,1.6l3.7,9.5c0.5,1.4-0.2,3-1.6,3.6l-9.2,3.6
							c-1.4,0.5-3-0.2-3.6-1.6l-3.7-9.5C822.2,440.7,822.9,439.1,824.4,438.5z"/>
						<path class="st16" d="M842.1,431.6l9.2-3.6c1.4-0.6,3,0.2,3.6,1.6l3.7,9.5c0.6,1.4-0.2,3-1.6,3.6l-9.2,3.6
							c-1.4,0.6-3-0.2-3.6-1.6l-3.7-9.5C840,433.8,840.7,432.2,842.1,431.6z"/>
						<path class="st16" d="M859.8,424.7l9.2-3.6c1.4-0.5,3,0.2,3.6,1.6l3.7,9.5c0.5,1.4-0.2,3-1.6,3.6l-9.2,3.6
							c-1.4,0.5-3-0.2-3.6-1.6l-3.7-9.5C857.7,426.9,858.4,425.3,859.8,424.7z"/>
						<path class="st16" d="M877.6,417.8l9.2-3.6c1.4-0.6,3,0.2,3.6,1.6l3.7,9.5c0.6,1.4-0.2,3-1.6,3.6l-9.2,3.6
							c-1.4,0.6-3-0.2-3.6-1.6l-3.7-9.5C875.4,420,876.1,418.3,877.6,417.8z"/>
						<path class="st16" d="M895.3,410.9l9.2-3.6c1.4-0.5,3,0.2,3.6,1.6l3.7,9.5c0.6,1.4-0.2,3-1.6,3.6l-9.2,3.6
							c-1.4,0.5-3-0.2-3.6-1.6l-3.7-9.5C893.2,413,893.9,411.4,895.3,410.9z"/>
						<path class="st16" d="M913,404l9.2-3.6c1.4-0.6,3,0.2,3.6,1.6l3.7,9.5c0.5,1.4-0.2,3-1.6,3.6l-9.2,3.6c-1.4,0.6-3-0.2-3.6-1.6
							l-3.7-9.5C910.9,406.1,911.6,404.5,913,404z"/>
						<path class="st16" d="M930.7,397.1l9.2-3.6c1.4-0.5,3,0.2,3.6,1.6l3.7,9.5c0.5,1.4-0.2,3-1.6,3.6l-9.2,3.6
							c-1.4,0.5-3-0.2-3.6-1.6l-3.7-9.5C928.6,399.2,929.3,397.6,930.7,397.1z"/>
						<path class="st16" d="M948.5,390.1l9.2-3.6c1.4-0.6,3,0.2,3.6,1.6l3.7,9.5c0.5,1.4-0.2,3-1.6,3.6l-9.2,3.6
							c-1.4,0.6-3-0.2-3.6-1.6l-3.7-9.5C946.4,392.3,947.1,390.7,948.5,390.1z"/>
						<path class="st16" d="M966.2,383.2l9.2-3.6c1.4-0.5,3,0.2,3.6,1.6l3.7,9.5c0.5,1.4-0.2,3-1.6,3.6l-9.2,3.6
							c-1.4,0.5-3-0.2-3.6-1.6l-3.7-9.5C964.1,385.4,964.8,383.8,966.2,383.2z"/>
						<path class="st16" d="M983.9,376.3l9.2-3.6c1.4-0.6,3,0.2,3.6,1.6l3.7,9.5c0.6,1.4-0.2,3-1.6,3.6l-9.2,3.6
							c-1.4,0.6-3-0.2-3.6-1.6l-3.7-9.5C981.8,378.5,982.5,376.9,983.9,376.3z"/>
						<path class="st16" d="M1001.7,369.4l9.2-3.6c1.4-0.6,3,0.2,3.6,1.6l3.7,9.5c0.6,1.4-0.2,3-1.6,3.6l-9.2,3.6
							c-1.4,0.6-3-0.2-3.6-1.6l-3.7-9.5C999.6,371.5,1000.3,369.9,1001.7,369.4z"/>
						<path class="st16" d="M818.2,460.7l9.2-3.6c1.4-0.6,3,0.2,3.6,1.6l3.7,9.5c0.6,1.4-0.2,3-1.6,3.6l-9.2,3.6
							c-1.4,0.6-3-0.2-3.6-1.6l-3.7-9.5C816.1,462.8,816.8,461.2,818.2,460.7z"/>
						<path class="st16" d="M836,453.8l9.2-3.6c1.4-0.6,3,0.2,3.6,1.6l3.7,9.5c0.5,1.4-0.2,3-1.6,3.6l-9.2,3.6
							c-1.4,0.6-3-0.2-3.6-1.6l-3.7-9.5C833.9,455.9,834.6,454.3,836,453.8z"/>
						<path class="st16" d="M853.7,446.9l9.2-3.6c1.4-0.6,3,0.2,3.6,1.6l3.7,9.5c0.5,1.4-0.2,3-1.6,3.6l-9.2,3.6
							c-1.4,0.5-3-0.2-3.6-1.6l-3.7-9.5C851.6,449,852.3,447.4,853.7,446.9z"/>
						<path class="st16" d="M871.4,439.9l9.2-3.6c1.4-0.5,3,0.2,3.6,1.6l3.7,9.5c0.5,1.4-0.2,3-1.6,3.6l-9.2,3.6
							c-1.4,0.5-3-0.2-3.6-1.6l-3.7-9.5C869.3,442.1,870,440.5,871.4,439.9z"/>
						<path class="st16" d="M889.2,433l9.2-3.6c1.4-0.5,3,0.2,3.6,1.6l3.7,9.5c0.6,1.4-0.2,3-1.6,3.6l-9.2,3.6
							c-1.4,0.6-3-0.2-3.6-1.6l-3.7-9.5C887.1,435.2,887.8,433.6,889.2,433z"/>
						<path class="st16" d="M906.9,426.1l9.2-3.6c1.4-0.6,3,0.2,3.6,1.6l3.7,9.5c0.6,1.4-0.2,3-1.6,3.6l-9.2,3.6
							c-1.4,0.6-3-0.2-3.6-1.6l-3.7-9.5C904.8,428.3,905.5,426.7,906.9,426.1z"/>
						<path class="st16" d="M924.6,419.2l9.2-3.6c1.4-0.6,3,0.2,3.6,1.6l3.7,9.5c0.6,1.4-0.2,3-1.6,3.6l-9.2,3.6
							c-1.4,0.6-3-0.2-3.6-1.6l-3.7-9.5C922.5,421.4,923.2,419.7,924.6,419.2z"/>
						<path class="st16" d="M942.4,412.3l9.2-3.6c1.4-0.5,3,0.2,3.6,1.6l3.7,9.5c0.5,1.4-0.2,3-1.6,3.6l-9.2,3.6
							c-1.4,0.5-3-0.2-3.6-1.6l-3.7-9.5C940.3,414.4,941,412.8,942.4,412.3z"/>
						<path class="st16" d="M960.1,405.4l9.2-3.6c1.4-0.6,3,0.2,3.6,1.6l3.7,9.5c0.6,1.4-0.2,3-1.6,3.6l-9.2,3.6
							c-1.4,0.6-3-0.2-3.6-1.6l-3.7-9.5C958,407.5,958.7,405.9,960.1,405.4z"/>
						<path class="st16" d="M977.8,398.4l9.2-3.6c1.4-0.6,3,0.2,3.6,1.6l3.7,9.5c0.5,1.4-0.2,3-1.6,3.6l-9.2,3.6
							c-1.4,0.6-3-0.2-3.6-1.6l-3.7-9.5C975.7,400.6,976.4,399,977.8,398.4z"/>
						<path class="st16" d="M995.6,391.5l9.2-3.6c1.4-0.6,3,0.2,3.6,1.6l3.7,9.5c0.5,1.4-0.2,3-1.6,3.6l-9.2,3.6
							c-1.4,0.6-3-0.2-3.6-1.6l-3.7-9.5C993.5,393.7,994.2,392.1,995.6,391.5z"/>
						<path class="st16" d="M834.2,474.2l9.2-3.6c1.4-0.6,3,0.2,3.6,1.6l3.7,9.5c0.5,1.4-0.2,3-1.6,3.6l-9.2,3.6
							c-1.4,0.6-3-0.2-3.6-1.6l-3.7-9.5C832.1,476.4,832.8,474.8,834.2,474.2z"/>
						<path class="st16" d="M852,467.3l9.2-3.6c1.4-0.6,3,0.2,3.6,1.6l3.7,9.5c0.6,1.4-0.2,3-1.6,3.6l-9.2,3.6
							c-1.4,0.6-3-0.2-3.6-1.6l-3.7-9.5C849.8,469.5,850.5,467.9,852,467.3z"/>
						<path class="st16" d="M869.7,460.4l9.2-3.6c1.4-0.5,3,0.2,3.6,1.6l3.7,9.5c0.6,1.4-0.2,3-1.6,3.6l-9.2,3.6
							c-1.4,0.5-3-0.2-3.6-1.6l-3.7-9.5C867.6,462.5,868.3,460.9,869.7,460.4z"/>
						<path class="st16" d="M887.4,453.5l9.2-3.6c1.4-0.5,3,0.2,3.6,1.6l3.7,9.5c0.5,1.4-0.2,3-1.6,3.6l-9.2,3.6
							c-1.4,0.5-3-0.2-3.6-1.6l-3.7-9.5C885.3,455.6,886,454,887.4,453.5z"/>
						<path class="st16" d="M905.1,446.6l9.2-3.6c1.4-0.6,3,0.2,3.6,1.6l3.7,9.5c0.5,1.4-0.2,3-1.6,3.6l-9.2,3.6
							c-1.4,0.6-3-0.2-3.6-1.6l-3.7-9.5C903,448.7,903.7,447.1,905.1,446.6z"/>
						<path class="st16" d="M922.9,439.6l9.2-3.6c1.4-0.6,3,0.2,3.6,1.6l3.7,9.5c0.5,1.4-0.2,3-1.6,3.6l-9.2,3.6
							c-1.4,0.6-3-0.2-3.6-1.6l-3.7-9.5C920.8,441.8,921.5,440.2,922.9,439.6z"/>
						<path class="st16" d="M940.6,432.7l9.2-3.6c1.4-0.6,3,0.2,3.6,1.6l3.7,9.5c0.5,1.4-0.2,3-1.6,3.6l-9.2,3.6
							c-1.4,0.5-3-0.2-3.6-1.6l-3.7-9.5C938.5,434.9,939.2,433.3,940.6,432.7z"/>
						<path class="st16" d="M958.3,425.8l9.2-3.6c1.4-0.5,3,0.2,3.6,1.6l3.7,9.5c0.5,1.4-0.2,3-1.6,3.6l-9.2,3.6
							c-1.4,0.5-3-0.2-3.6-1.6l-3.7-9.5C956.2,428,956.9,426.4,958.3,425.8z"/>
						<path class="st16" d="M976.1,418.9l9.2-3.6c1.4-0.6,3,0.2,3.6,1.6l3.7,9.5c0.6,1.4-0.2,3-1.6,3.6l-9.2,3.6
							c-1.4,0.6-3-0.2-3.6-1.6l-3.7-9.5C974,421,974.7,419.4,976.1,418.9z"/>
						<path class="st16" d="M993.8,412l9.2-3.6c1.4-0.6,3,0.2,3.6,1.6l3.7,9.5c0.5,1.4-0.2,3-1.6,3.6l-9.2,3.6
							c-1.4,0.6-3-0.2-3.6-1.6l-3.7-9.5C991.7,414.1,992.4,412.5,993.8,412z"/>
						<path class="st16" d="M1011.6,405l16.7-6.5c1.4-0.6,3.1,0.2,3.6,1.6l3.7,9.4c0.6,1.4-0.2,3.1-1.6,3.6l-16.7,6.5
							c-1.4,0.6-3.1-0.2-3.6-1.6l-3.7-9.4C1009.4,407.2,1010.1,405.6,1011.6,405z"/>
						<path class="st16" d="M822.9,498.4l9.2-3.6c1.4-0.5,3,0.2,3.6,1.6l3.7,9.5c0.5,1.4-0.2,3-1.6,3.6l-9.2,3.6
							c-1.4,0.5-3-0.2-3.6-1.6l-3.7-9.5C820.8,500.6,821.5,498.9,822.9,498.4z"/>
						<path class="st16" d="M840.6,491.5l9.2-3.6c1.4-0.6,3,0.2,3.6,1.6l3.7,9.5c0.5,1.4-0.2,3-1.6,3.6l-9.2,3.6
							c-1.4,0.6-3-0.2-3.6-1.6l-3.7-9.5C838.5,493.6,839.2,492,840.6,491.5z"/>
						<path class="st16" d="M858.4,484.6l9.2-3.6c1.4-0.6,3,0.2,3.6,1.6l3.7,9.5c0.6,1.4-0.2,3-1.6,3.6l-9.2,3.6
							c-1.4,0.5-3-0.2-3.6-1.6l-3.7-9.5C856.2,486.7,856.9,485.1,858.4,484.6z"/>
						<path class="st16" d="M876.1,477.7l9.2-3.6c1.4-0.5,3,0.2,3.6,1.6l3.7,9.5c0.5,1.4-0.2,3-1.6,3.6l-9.2,3.6
							c-1.4,0.6-3-0.2-3.6-1.6l-3.7-9.5C874,479.8,874.7,478.2,876.1,477.7z"/>
						<path class="st16" d="M893.8,470.7l9.2-3.6c1.4-0.6,3,0.2,3.6,1.6l3.7,9.5c0.6,1.4-0.2,3-1.6,3.6l-9.2,3.6
							c-1.4,0.5-3-0.2-3.6-1.6l-3.7-9.5C891.7,472.9,892.4,471.3,893.8,470.7z"/>
						<path class="st16" d="M911.5,463.8l9.2-3.6c1.4-0.6,3,0.2,3.6,1.6l3.7,9.5c0.6,1.4-0.2,3-1.6,3.6l-9.2,3.6
							c-1.4,0.6-3-0.2-3.6-1.6l-3.7-9.5C909.4,466,910.1,464.4,911.5,463.8z"/>
						<path class="st16" d="M929.3,456.9l9.2-3.6c1.4-0.6,3,0.2,3.6,1.6l3.7,9.5c0.6,1.4-0.2,3-1.6,3.6l-9.2,3.6
							c-1.4,0.5-3-0.2-3.6-1.6l-3.7-9.5C927.2,459.1,927.9,457.5,929.3,456.9z"/>
						<path class="st16" d="M947,450l9.2-3.6c1.4-0.6,3,0.2,3.6,1.6l3.7,9.5c0.5,1.4-0.2,3-1.6,3.6l-9.2,3.6c-1.4,0.6-3-0.2-3.6-1.6
							l-3.7-9.5C944.9,452.1,945.6,450.5,947,450z"/>
						<path class="st16" d="M964.7,443.1l9.2-3.6c1.4-0.6,3,0.2,3.6,1.6l3.7,9.5c0.6,1.4-0.2,3-1.6,3.6l-9.2,3.6
							c-1.4,0.6-3-0.2-3.6-1.6l-3.7-9.5C962.6,445.2,963.3,443.6,964.7,443.1z"/>
						<path class="st16" d="M982.5,436.2l9.2-3.6c1.4-0.6,3,0.2,3.6,1.6l3.7,9.5c0.6,1.4-0.2,3-1.6,3.6l-9.2,3.6
							c-1.4,0.6-3-0.2-3.6-1.6l-3.7-9.5C980.4,438.3,981.1,436.7,982.5,436.2z"/>
						<path class="st16" d="M1000.3,429.2l16.7-6.5c1.4-0.6,3.1,0.2,3.6,1.6l3.7,9.4c0.6,1.4-0.2,3.1-1.6,3.6l-16.7,6.5
							c-1.4,0.6-3.1-0.2-3.6-1.6l-3.7-9.4C998.1,431.4,998.8,429.8,1000.3,429.2z"/>
						<path class="st16" d="M1026.4,419l8.8-3.4c1.3-0.5,2.9,0.1,3.4,1.5l3.8,9.7c0.5,1.3-0.1,2.9-1.5,3.4l-8.8,3.4
							c-1.3,0.5-2.9-0.1-3.4-1.5l-3.8-9.7C1024.3,421.1,1025,419.6,1026.4,419z"/>
						<path class="st16" d="M898.3,500l92.1-35.9c1.4-0.5,3,0.2,3.6,1.6l17.3,44.3c0.5,1.4-0.2,3-1.6,3.6l-92.1,35.9
							c-1.4,0.6-3-0.2-3.6-1.6l-17.3-44.3C896.2,502.2,896.9,500.6,898.3,500z"/>
						<path class="st16" d="M916.8,553.5L1013,516c0.3-0.1,0.6,0,0.7,0.3l3.6,9.2c0.1,0.3,0,0.6-0.3,0.7l-96.2,37.5
							c-0.3,0.1-0.6,0-0.7-0.3l-3.6-9.2C916.4,554,916.5,553.6,916.8,553.5z"/>
						<path class="st16" d="M967.2,533.9L1013,516c0.3-0.1,0.6,0,0.7,0.3l3.6,9.2c0.1,0.3,0,0.6-0.3,0.7l-45.8,17.9
							c-0.3,0.1-0.6,0-0.7-0.3l-3.6-9.2C966.7,534.3,966.9,534,967.2,533.9z"/>
						<polygon class="st21" points="704.8,365 1032.9,278.3 1040.6,234.1 						"/>
					</g>
				</g>
				<path class="st22" d="M775.7,520l3.1-15.1c0,0-8.1-1.9-4-16.3l14.8-53.5c0,0,1.6-4.5,6.7-3.3c4.2,1,2.9,6.5,2.9,6.5
					s-4.3,18.7-3.3,18.8c3,0.5,13.8-42.8,14.4-44.7c0.9-2.9,3.3-5.8,7.9-4.8c5.7,1.3,4.4,6.5,4,8.2c-0.4,1.8-11,42.9-10.3,44.9
					c0.7,1.9,20.5-55.6,20.5-55.6s1.5-6.8,8.2-4.8c6.7,1.9,3.9,7.1,3,10.3c-1,3.2-16,50.7-15.8,52.8c0.1,2.1,20.4-44.9,20.4-44.9
					s1.7-5.4,7-3.7c5.5,1.7,2.4,9,2.4,9l-12.4,44.6l9.5-12.5c0,0,3.4-4.7,8-2c4.4,2.6,0.8,8.5-1.6,13.6c-1.8,4-20.2,48.2-43.4,43.7
					l-3.2,15.3L775.7,520z"/>
				
					<rect x="768.5" y="513.6" transform="matrix(0.9909 0.1347 -0.1347 0.9909 78.517 -102.3112)" class="st23" width="53.8" height="31.1"/>
				<path class="st24" d="M968.5,855.8c-108.8-24.3-191-134-191-134s-22-125.9-13.1-191.5l63,8.5c-7.6,56.1,8.4,157.5,8.4,157.5
					s61.2,78.3,146.7,97.4L968.5,855.8z"/>
				<path class="st22" d="M1127.4,490.4l-10.5-11.2c0,0,5.9-5.8-5.1-16l-40.4-38c0,0-3.7-3-7.4,0.7c-3.1,3,0.9,7.1,0.9,7.1
					s13.4,13.7,12.6,14.4c-2.3,1.9-34.1-29.4-35.5-30.7c-2.3-2-5.9-3.2-9.3,0.1c-4.2,4.1-0.4,7.8,0.8,9.1c1.2,1.3,31.7,30.9,32.1,33
					c0.4,2-46.4-36.8-46.4-36.8s-4.8-5-9.5,0.1c-4.7,5.1,0.3,8.1,2.8,10.4c2.5,2.3,40,35,41,36.9c1,1.9-40.8-27.8-40.8-27.8
					s-4.3-3.7-7.9,0.5c-3.8,4.3,2.6,8.9,2.6,8.9l33.8,31.7l-14.7-5.7c0,0-5.4-2.2-7.8,2.5c-2.4,4.5,3.7,7.6,8.4,10.8
					c3.7,2.5,42.3,30.7,59.8,14.8l10.7,11.4L1127.4,490.4z"/>
				
					<rect x="1093.4" y="495.6" transform="matrix(-0.6507 0.7594 -0.7594 -0.6507 2237.3335 -6.9524)" class="st23" width="53.8" height="31.1"/>
				<path class="st24" d="M1059.6,769.6c74.8-48.5,113.7-123.6,113.7-123.6s-20.6-68.1-64.9-107.5l42.3-47.5
					c59.9,53.4,85.8,162.3,85.8,162.3s-50.1,109.7-142.4,169.5L1059.6,769.6z"/>
				<g>
					<g>
						<g>
							<path class="st22" d="M1133.6,755.7c12.4,50.2-20.5,100.7-73.5,112.8c-53,12.1-106-18.7-118.4-68.9
								c-12.4-50.2,20.5-100.7,73.5-112.8C1068.2,674.7,1121.2,705.5,1133.6,755.7z"/>
							<path class="st22" d="M1019.3,712.5c0,0-2.5-10,6.2-12c8.7-2,9.8,8.3,9.8,8.3L1019.3,712.5z"/>
						</g>
						<path class="st25" d="M1113.3,708.1c-24.2-23.5-47.8-8.8-92.8,7.5c-20.5,7.5-55.2-2.2-72.9,18.3
							c-40.5,46.8,0.5,186.6,116.8,152.3C1202.5,845.4,1136.2,730.4,1113.3,708.1z"/>
						<path class="st25" d="M1126.8,728.1l-114.2,40.2l-2.9-8.2c-13.2-37.5,6.5-78.6,44-91.8l46.4-16.3L1126.8,728.1z"/>
					</g>
				</g>
			</g>
		</g>
	</g>
	<g>
		<polygon class="st26" points="238,685.4 268.6,651.4 504.8,652.7 508.8,774.4 		"/>
		<path class="st2" d="M482.6,888.7l-291.2-95.6c-8.6-2.8-13.3-12.1-10.5-20.8v0c2.8-8.6,12.1-13.3,20.8-10.5l291.2,95.6
			c8.6,2.8,13.3,12.1,10.5,20.8l0,0C500.5,886.8,491.2,891.5,482.6,888.7z"/>
		<g>
			<g>
				<path class="st27" d="M207.6,742.7c-10.5,0-19.8-7.5-21.7-18.2c-3.4-18.9,2.3-43.4,17.4-74.7c11.8-24.6,29.4-53.3,52.2-85.5
					c26.1-36.7,74.6-49.4,115.3-30.1l108.2,51.2c11,5.2,15.8,18.4,10.5,29.5c-5.2,11-18.4,15.8-29.5,10.5l-108.2-51.2
					c-21.3-10.1-46.7-3.5-60.3,15.8c-49.9,70.3-64.8,111.6-62.1,126.8c2.1,12-5.9,23.5-17.9,25.7
					C210.2,742.6,208.9,742.7,207.6,742.7z"/>
				<circle class="st27" cx="470.4" cy="609.4" r="24.9"/>
				<path class="st13" d="M212.1,773.3l-22.4-17.5c-17.5-13.7-12.2-36.7-10.2-45.4c2.2-9.6,6.2-22.2,11.9-37.3
					c9.4-24.9,23.2-56.6,38-86.9c13.1-26.9,35.9-47.3,64-57.5c28.2-10.1,58.7-8.9,86,3.5l71.6,32.5l-23.5,51.8L355.9,584
					c-28.6-13-61.7-1-75.4,27.1c-22.7,46.6-39.6,89.1-44.8,108.5l11.5,9L212.1,773.3z"/>
			</g>
		</g>
		<g>
			<g>
				<path class="st27" d="M536,550h49.4c0.8-41.8-0.4-71.4-0.5-73.2c-0.5-12.2-12-21.7-25.6-21.3c-13.6,0.5-24.2,10.7-23.7,22.9
					C535.6,478.9,536.8,508.5,536,550z"/>
				<circle class="st27" cx="544.2" cy="481.6" r="21"/>
				<path class="st27" d="M544.2,483.4L544.2,483.4c-4.3,0-7.7-3.5-7.7-7.7v-42.4c0-4.3,3.5-7.7,7.7-7.7l0,0c4.3,0,7.7,3.5,7.7,7.7
					v42.4C551.9,480,548.5,483.4,544.2,483.4z"/>
				<path class="st27" d="M560.5,488.2L560.5,488.2c-4.3,0-7.7-3.5-7.7-7.7v-42.4c0-4.3,3.5-7.7,7.7-7.7l0,0c4.3,0,7.7,3.5,7.7,7.7
					v42.4C568.3,484.7,564.8,488.2,560.5,488.2z"/>
				<path class="st27" d="M574.3,496.1L574.3,496.1c-4.3,0-7.7-3.5-7.7-7.7V446c0-4.3,3.5-7.7,7.7-7.7l0,0c4.3,0,7.7,3.5,7.7,7.7
					v42.4C582,492.7,578.5,496.1,574.3,496.1z"/>
				<path class="st27" d="M583.2,510.5L583.2,510.5c-4.3,0-7.7-3.5-7.7-7.7v-42.4c0-4.3,3.5-7.7,7.7-7.7l0,0c4.3,0,7.7,3.5,7.7,7.7
					v42.4C590.9,507.1,587.5,510.5,583.2,510.5z"/>
				<path class="st13" d="M449.2,853.9l-0.4-56.9l26.7-0.2c6.6-4.1,23.4-26.5,38.4-75.4c14.6-47.5,22.1-102.8,20.1-147.9l-1.3-28.4
					l56.8-2.5l1.3,28.4c2.1,46.4-4.2,99.6-17.6,149.7c-7.8,29.3-25.1,82.7-52.7,111.8c-13.3,13.9-27.7,21.1-42.9,21.2L449.2,853.9z"
					/>
			</g>
		</g>
		<path class="st13" d="M464.7,852.5l-19.2,6.7c-68.5,14-144.9-14.6-198.2-60l-41.2-29.5l2.8-93.9l320.7,104.3L464.7,852.5z"/>
		<path class="st27" d="M458.8,806.8c25.1-47.6-1.5-106.2-53.7-119.2l-0.1,0l-0.2-0.8c-4.6-11.3-19-14.5-27.9-6.2h0l-4.8-1.2
			c-51.3-12.8-101.4,24.9-103.3,77.7c-0.5,15.3,0.9,29.4,5.9,39.5c11.7,24.1,35.4,43.3,69.2,54.4
			C405.9,871.5,438.1,845.9,458.8,806.8z"/>
		<g>
			<path class="st28" d="M290,857.6c-27.1,11.5-19.2,48.5-14.3,57.7c5.5,10.4,20.2,17.3,31.7,19.6c13.2,2.6,27.3-0.2,38.5-7.6
				c11.2-7.4,19.4-19.2,22.2-32.4c1-4.5,1.1-9.9-2.2-13.2"/>
		</g>
		<path class="st29" d="M290,857.6c14.1-22.4,38-37.6,57.3-29.9c18.5,7.5,35.8,20,19,55.8C340.2,893.4,306.9,883.4,290,857.6z"/>
		<path class="st30" d="M399.3,709.8l-33-8.2c-65.5-8.8-55.8,31.1-87,15.3c0,0-15.3,35.4-16.3,62.4c-0.5,15.3,0.9,29.4,5.9,39.5
			c11.7,24.1,35.4,43.3,69.2,54.4c62.1,20.4,93-5.8,114.9-44.3c15.3-26.8,15.3-58.4,15.3-58.4s-7,4.8-8.4-0.6
			C452.6,741.6,430.5,717.5,399.3,709.8z"/>
	</g>
	<g id="screen_1_">
		<path class="st17" d="M568.1,340.6l-155.7-34.8c-9.2-2.1-15-11.2-12.9-20.4l9.4-42c2.1-9.2,11.2-15,20.4-12.9l155.7,34.8
			c9.2,2.1,15,11.2,12.9,20.4l-9.4,42C586.4,336.9,577.3,342.7,568.1,340.6z"/>
		<path class="st31" d="M567.5,336.2l-155.7-34.8c-9.2-2.1-15-11.2-12.9-20.4l9.4-42c2.1-9.2,11.2-15,20.4-12.9l155.7,34.8
			c9.2,2.1,15,11.2,12.9,20.4l-9.4,42C585.8,332.5,576.6,338.3,567.5,336.2z"/>
		<path class="st19" d="M247.2,33.4l576,121.9c13.9,2.9,15.5,7.9,9.1,18l-75.2,117.7L252.4,184.2L234.9,55
			C232.4,37.2,232,30.1,247.2,33.4z"/>
		<linearGradient id="SVGID_1_" gradientUnits="userSpaceOnUse" x1="529.9935" y1="147.6508" x2="535.201" y2="98.1793">
			<stop  offset="0" style="stop-color:#FFFFFF"/>
			<stop  offset="1" style="stop-color:#E6E6E6"/>
		</linearGradient>
		<path class="st32" d="M823.2,155.2l-576-121.9c-10.2-2.2-13.4,0.3-13.6,7.5l601.9,125.9C837.2,160.8,833.7,157.4,823.2,155.2z"/>
		<polygon class="st33" points="798.9,185.7 742.9,277.3 271.3,177.5 256.8,71 		"/>
		<g>
			<g>
				<polygon class="st5" points="510.9,136.5 290.2,96 290.9,102.2 509.9,142.1 				"/>
				<polygon class="st5" points="508.1,150.8 292,111.9 292.6,118 507,156.4 				"/>
				<polygon class="st5" points="505.2,165.1 293.7,127.7 294.4,133.8 504.1,170.7 				"/>
				<polygon class="st5" points="439,168.7 295.5,143.5 296.1,149.6 437.4,174.3 				"/>
			</g>
			<g>
				<g>
					<polygon class="st5" points="560.3,145.6 742.6,179.1 713.8,230.5 551.1,195.6 					"/>
				</g>
			</g>
		</g>
		<polygon class="st21" points="798.9,185.7 742.9,277.3 256.8,71 		"/>
		<path class="st19" d="M252.3,184.1l2.4,18c1,7.1,7.5,14.2,14.5,15.7l458.1,96.9c7,1.5,15.9-2.3,19.8-8.3l9.9-15.4L252.3,184.1z"/>
		<ellipse transform="matrix(0.976 0.2179 -0.2179 0.976 63.0213 -96.5022)" class="st34" cx="469" cy="237.4" rx="8.8" ry="7.5"/>
		<ellipse transform="matrix(0.976 0.2179 -0.2179 0.976 65.5296 -104.0995)" class="st34" cx="504.7" cy="245" rx="8.8" ry="7.5"/>
		
			<ellipse transform="matrix(0.976 0.2179 -0.2179 0.976 68.0379 -111.6967)" class="st34" cx="540.4" cy="252.6" rx="8.8" ry="7.5"/>
	</g>
	<g>
		<g>
			<path class="st35" d="M1329.8,216.6c2.2,4.5,0.4,9.8-3.9,11.9l-115.2,55.6c-4.3,2.1-9.6,0.2-11.8-4.3L1126,129.6
				c-2.2-4.5-0.4-9.8,3.9-11.9L1245.2,62c4.3-2.1,9.6-0.2,11.8,4.3L1329.8,216.6z"/>
			<g>
				<path class="st13" d="M1250.9,66.9l-113.5,54.8c-5.3,2.6-7.5,9-5,14.3l66.1,136.5c2.6,5.3,9,7.5,14.3,5l113.5-54.8L1250.9,66.9z
					"/>
				
					<rect x="1196.8" y="46" transform="matrix(0.4363 0.8998 -0.8998 0.4363 769.02 -1017.9458)" class="st36" width="0.4" height="117.6"/>
				
					<rect x="1201.4" y="55.6" transform="matrix(0.4365 0.8997 -0.8997 0.4365 780.0305 -1016.6262)" class="st36" width="0.4" height="117.6"/>
				
					<rect x="1206.1" y="65.2" transform="matrix(0.4363 0.8998 -0.8998 0.4363 791.5515 -1015.4936)" class="st36" width="0.4" height="117.6"/>
				
					<rect x="1210.8" y="74.8" transform="matrix(0.4365 0.8997 -0.8997 0.4365 802.5599 -1014.1766)" class="st36" width="0.4" height="117.6"/>
				
					<rect x="1215.4" y="84.4" transform="matrix(0.4363 0.8998 -0.8998 0.4363 814.0838 -1013.0422)" class="st36" width="0.4" height="117.6"/>
				
					<rect x="1220.1" y="94" transform="matrix(0.4363 0.8998 -0.8998 0.4363 825.3464 -1011.8157)" class="st36" width="0.4" height="117.6"/>
				
					<rect x="1224.7" y="103.7" transform="matrix(0.4363 0.8998 -0.8998 0.4363 836.613 -1010.5928)" class="st36" width="0.4" height="117.6"/>
				
					<rect x="1229.4" y="113.3" transform="matrix(0.4364 0.8998 -0.8998 0.4364 847.8142 -1009.3474)" class="st36" width="0.4" height="117.6"/>
				
					<rect x="1234" y="122.9" transform="matrix(0.4363 0.8998 -0.8998 0.4363 859.1459 -1008.1404)" class="st36" width="0.4" height="117.6"/>
				
					<rect x="1238.7" y="132.5" transform="matrix(0.4365 0.8997 -0.8997 0.4365 870.139 -1006.83)" class="st36" width="0.4" height="117.6"/>
				
					<rect x="1243.3" y="142.1" transform="matrix(0.4363 0.8998 -0.8998 0.4363 881.6718 -1005.6876)" class="st36" width="0.4" height="117.6"/>
				
					<rect x="1248" y="151.7" transform="matrix(0.4363 0.8998 -0.8998 0.4363 892.9379 -1004.4607)" class="st36" width="0.4" height="117.6"/>
				
					<rect x="1252.6" y="161.3" transform="matrix(0.4366 0.8996 -0.8996 0.4366 903.7897 -1003.1211)" class="st36" width="0.4" height="117.6"/>
				
					<rect x="1257.3" y="170.9" transform="matrix(0.4363 0.8998 -0.8998 0.4363 915.4718 -1002.0101)" class="st36" width="0.4" height="117.6"/>
				
					<rect x="1262" y="180.5" transform="matrix(0.4364 0.8998 -0.8998 0.4364 926.6721 -1000.7674)" class="st36" width="0.4" height="117.6"/>
				<path class="st37" d="M1121.6,138.3c-0.6-1.3-0.1-2.9,1.2-3.6l14-6.8c1.3-0.6,2.9-0.1,3.6,1.2c0.6,1.3,0.1,2.9-1.2,3.6l-14,6.8
					C1123.9,140.2,1122.3,139.6,1121.6,138.3z M1142.1,138.7l-14,6.8c-1.3,0.6-1.9,2.2-1.2,3.6c0.6,1.3,2.2,1.9,3.6,1.2l14-6.8
					c1.3-0.6,1.9-2.2,1.2-3.6C1145.1,138.6,1143.5,138.1,1142.1,138.7z M1147.4,149.5l-14,6.8c-1.3,0.6-1.9,2.2-1.2,3.6
					c0.6,1.3,2.2,1.9,3.6,1.2l14-6.8c1.3-0.6,1.9-2.2,1.2-3.6C1150.3,149.4,1148.7,148.9,1147.4,149.5z M1152.6,160.3l-14,6.8
					c-1.3,0.6-1.9,2.2-1.2,3.6c0.6,1.3,2.2,1.9,3.6,1.2l14-6.8c1.3-0.6,1.9-2.2,1.2-3.6C1155.5,160.2,1153.9,159.7,1152.6,160.3z
					 M1157.8,171.1l-14,6.8c-1.3,0.6-1.9,2.2-1.2,3.6c0.6,1.3,2.2,1.9,3.6,1.2l14-6.8c1.3-0.6,1.9-2.2,1.2-3.6
					C1160.8,171.1,1159.2,170.5,1157.8,171.1z M1163.1,181.9l-14,6.8c-1.3,0.6-1.9,2.2-1.2,3.6c0.6,1.3,2.2,1.9,3.6,1.2l14-6.8
					c1.3-0.6,1.9-2.2,1.2-3.6C1166,181.9,1164.4,181.3,1163.1,181.9z M1168.3,192.8l-14,6.8c-1.3,0.6-1.9,2.2-1.2,3.6
					c0.6,1.3,2.2,1.9,3.6,1.2l14-6.8c1.3-0.6,1.9-2.2,1.2-3.6C1171.2,192.7,1169.6,192.1,1168.3,192.8z M1173.6,203.6l-14,6.8
					c-1.3,0.6-1.9,2.2-1.2,3.6c0.6,1.3,2.2,1.9,3.6,1.2l14-6.8c1.3-0.6,1.9-2.2,1.2-3.6C1176.5,203.5,1174.9,202.9,1173.6,203.6z
					 M1178.8,214.4l-14,6.8c-1.3,0.6-1.9,2.2-1.2,3.6c0.6,1.3,2.2,1.9,3.6,1.2l14-6.8c1.3-0.6,1.9-2.2,1.2-3.6
					C1181.7,214.3,1180.1,213.7,1178.8,214.4z M1184,225.2l-14,6.8c-1.3,0.6-1.9,2.2-1.2,3.6c0.6,1.3,2.2,1.9,3.6,1.2l14-6.8
					c1.3-0.6,1.9-2.2,1.2-3.6C1187,225.1,1185.4,224.5,1184,225.2z M1189.3,236l-14,6.8c-1.3,0.6-1.9,2.2-1.2,3.6
					c0.6,1.3,2.2,1.9,3.6,1.2l14-6.8c1.3-0.6,1.9-2.2,1.2-3.6C1192.2,235.9,1190.6,235.3,1189.3,236z M1194.5,246.8l-14,6.8
					c-1.3,0.6-1.9,2.2-1.2,3.6c0.6,1.3,2.2,1.9,3.6,1.2l14-6.8c1.3-0.6,1.9-2.2,1.2-3.6C1197.4,246.7,1195.8,246.1,1194.5,246.8z
					 M1199.7,257.6l-14,6.8c-1.3,0.6-1.9,2.2-1.2,3.6c0.6,1.3,2.2,1.9,3.6,1.2l14-6.8c1.3-0.6,1.9-2.2,1.2-3.6
					C1202.7,257.5,1201.1,256.9,1199.7,257.6z M1205,268.4l-14,6.8c-1.3,0.6-1.9,2.2-1.2,3.6c0.6,1.3,2.2,1.9,3.6,1.2l14-6.8
					c1.3-0.6,1.9-2.2,1.2-3.6C1207.9,268.3,1206.3,267.7,1205,268.4z"/>
				<polygon class="st38" points="1173.6,146.5 1163.2,144.5 1158.1,154 1138.2,113.7 1153.7,106.2 				"/>
			</g>
		</g>
	</g>
	<g>
		<path class="st15" d="M1319.4,409.2h-44.3c-9.4,0-17-7.6-17-17v-44.3c0-9.4,7.6-17,17-17h44.3c9.4,0,17,7.6,17,17v44.3
			C1336.5,401.6,1328.8,409.2,1319.4,409.2z"/>
		<path class="st39" d="M1317.4,401.9h-40.3c-6.4,0-11.7-5.2-11.7-11.7v-40.3c0-6.4,5.2-11.7,11.7-11.7h40.3
			c6.4,0,11.7,5.2,11.7,11.7v40.3C1329.1,396.6,1323.8,401.9,1317.4,401.9z"/>
		<circle class="st40" cx="1283.3" cy="356.7" r="13.9"/>
		<circle class="st40" cx="1299.6" cy="369.7" r="6.2"/>
		<rect x="1334.5" y="361.7" class="st15" width="19" height="14.7"/>
	</g>
	<g>
		<path class="st15" d="M68.4,479.6l42.8-11.5c9.1-2.5,18.4,2.9,20.9,12l11.5,42.8c2.5,9.1-2.9,18.4-12,20.9l-42.8,11.5
			c-9.1,2.5-18.4-2.9-20.9-12l-11.5-42.8C53.9,491.4,59.3,482,68.4,479.6z"/>
		<path class="st39" d="M72.3,486.2l38.9-10.5c6.2-1.7,12.6,2,14.3,8.2l10.5,38.9c1.7,6.2-2,12.6-8.2,14.3l-38.9,10.5
			c-6.2,1.7-12.6-2-14.3-8.2L64,500.5C62.4,494.2,66,487.8,72.3,486.2z"/>
		<circle class="st40" cx="84.5" cy="502" r="13.9"/>
		<circle class="st40" cx="103.7" cy="510.3" r="6.2"/>
		
			<rect x="45.6" y="517.4" transform="matrix(-0.9655 0.2603 -0.2603 -0.9655 244.859 1017.0847)" class="st15" width="19" height="14.7"/>
	</g>
	<g id="glasses_1_">
		<g>
			<path class="st41" d="M923.8,170.9L923.8,170.9c-0.5-2.8,1.3-5.5,4.1-6.1c2.8-0.5,5.5,1.3,6.1,4.1l0,0l3.9-0.7l0,0
				c-0.9-5-5.7-8.2-10.7-7.3c-5,0.9-8.2,5.7-7.3,10.7l0,0L923.8,170.9z"/>
			<g>
				<path class="st42" d="M938.3,170.8c-0.8-4.1,1.9-8.1,6-8.9l25.9-4.9c4.1-0.8,8.1,1.9,8.8,6l2.6,14c0.8,4.1-1.9,8.1-6,8.9
					l-25.9,4.9c-4.1,0.8-8.1-1.9-8.8-6L938.3,170.8z"/>
				<path class="st43" d="M949.8,190.8l14.2-2.7l-5.5-28.9l-14.2,2.7c-4.1,0.8-6.8,4.8-6,8.9l2.6,14
					C941.7,188.9,945.7,191.6,949.8,190.8z"/>
			</g>
			<g>
				<path class="st42" d="M879.7,181.9c-0.8-4.1,1.9-8.1,6-8.9l25.9-4.9c4.1-0.8,8.1,1.9,8.8,6l2.6,14c0.8,4.1-1.9,8.1-6,8.9
					l-25.9,4.9c-4.1,0.8-8.1-1.9-8.8-6L879.7,181.9z"/>
				<path class="st43" d="M891.2,201.9l14.2-2.7l-5.5-28.9l-14.2,2.7c-4.1,0.8-6.8,4.8-6,8.9l2.6,14
					C883.1,200,887.1,202.7,891.2,201.9z"/>
			</g>
			<path class="st44" d="M948.6,195l29.8-5.6c5.2-1,8.6-6,7.6-11.2l-3.3-17.7c-1-5.2-6-8.6-11.2-7.6l-29.8,5.6
				c-5.2,1-8.6,6-7.6,11.2l3.3,17.7C938.4,192.5,943.4,195.9,948.6,195z M938.3,170.8c-0.8-4.1,1.9-8.1,6-8.9l25.9-4.9
				c4.1-0.8,8.1,1.9,8.8,6l2.6,14c0.8,4.1-1.9,8.1-6,8.9l-25.9,4.9c-4.1,0.8-8.1-1.9-8.8-6L938.3,170.8z"/>
			<path class="st44" d="M890,206.1l29.8-5.6c5.2-1,8.6-6,7.6-11.2l-3.3-17.7c-1-5.2-6-8.6-11.2-7.6l-29.8,5.7
				c-5.2,1-8.6,6-7.6,11.2l3.3,17.7C879.8,203.6,884.8,207.1,890,206.1z M879.7,181.9c-0.8-4.1,1.9-8.1,6-8.9l25.9-4.9
				c4.1-0.8,8.1,1.9,8.8,6l2.6,14c0.8,4.1-1.9,8.1-6,8.9l-25.9,4.9c-4.1,0.8-8.1-1.9-8.8-6L879.7,181.9z"/>
		</g>
	</g>
	<g>
		<path class="st45" d="M1130.9,236.9c-0.2-0.5,0.3-1.1,0.9-1.3c0.7-0.2,1.3,0.1,1.5,0.6l1.1,3.8c0.2,0.5-0.3,1.1-0.9,1.3
			c-0.7,0.2-1.4-0.1-1.5-0.6L1130.9,236.9z"/>
		<path class="st46" d="M1173.2,354.3l-33-111c-0.7-2.4-3.9-3.6-5.9-4.2l-2.6,0.7c-1.3,1.5-3.4,4.4-2.7,6.8l33,111
			c1,3.5,4.4,5.5,7.5,4.6C1172.6,361.3,1174.3,357.8,1173.2,354.3z"/>
		<path class="st47" d="M1129.5,253.4c-0.9-3,1.5-6.5,5.4-7.6c3.9-1.2,7.8,0.4,8.7,3.4l29.6,99.7c0.9,3-1.5,6.5-5.4,7.6
			c-3.9,1.2-7.8-0.4-8.7-3.4L1129.5,253.4z"/>
		<path class="st46" d="M1158.7,351.8L1158.7,351.8c-4-3.7-6.9-8.3-8.5-13.5l-6.5-22c0,0,0,0,0,0c0.4-1.5,2.5-1.5,3,0l6.3,21.3
			c0,0,8.3,2.2,16.3-3.9l4.2,14C1173.5,347.6,1166.9,353.3,1158.7,351.8z"/>
	</g>
	<g>
		<path class="st45" d="M1101.1,252.5c-0.2-0.5,0.3-1.1,0.9-1.3c0.7-0.2,1.4,0.1,1.5,0.6l1.1,3.8c0.2,0.5-0.3,1.1-0.9,1.3
			c-0.7,0.2-1.4-0.1-1.5-0.6L1101.1,252.5z"/>
		<path class="st46" d="M1143.4,369.9l-33-111c-0.7-2.4-3.9-3.6-5.9-4.2l-2.6,0.7c-1.3,1.5-3.4,4.4-2.7,6.8l33,111
			c1,3.5,4.4,5.5,7.5,4.6C1142.7,376.9,1144.4,373.4,1143.4,369.9z"/>
		<path class="st48" d="M1099.6,269c-0.9-3,1.5-6.5,5.4-7.6c3.9-1.2,7.8,0.4,8.7,3.4l29.6,99.7c0.9,3-1.5,6.5-5.4,7.6
			c-3.9,1.2-7.8-0.4-8.7-3.4L1099.6,269z"/>
		<path class="st46" d="M1128.9,367.4L1128.9,367.4c-4-3.7-6.9-8.3-8.5-13.5l-6.5-22l0,0c0.4-1.5,2.5-1.5,3,0l6.3,21.3
			c0,0,8.3,2.2,16.3-3.9l4.2,14C1143.6,363.3,1137,368.9,1128.9,367.4z"/>
	</g>
	<g>
		<polygon class="st49" points="1363.5,470.8 1268.1,441.4 1248.5,505.2 1265.3,545.2 1334.1,566.4 		"/>
		<polygon class="st50" points="1363.5,470.8 1268.1,441.4 1264.6,452.8 1360,482.3 		"/>
	</g>
	<g>
		<polygon class="st49" points="766.6,3.9 689.3,57.5 725.2,109.1 743.4,134.7 820.4,81.2 		"/>
		<polygon class="st50" points="766.6,3.9 689.3,57.5 695.7,66.8 773.1,13.1 		"/>
	</g>
	<g>
		<polygon class="st49" points="203.3,57.1 109.4,52 106,114.8 104.7,146.1 198.3,151.2 		"/>
		<polygon class="st50" points="203.3,57.1 109.4,52 108.8,63.3 202.7,68.4 		"/>
	</g>
	<polygon class="st50" points="1248.5,505.2 1275.1,513.4 1265.3,545.2 	"/>
</g>
</svg>
